<svg width="261" height="261" viewBox="0 0 261 261" fill="none" xmlns="http://www.w3.org/2000/svg">
<path d="M19.8854 78.0546C13.4217 68.0923 10.1161 55.9532 12.4351 43.6496C13.536 37.7814 15.7847 32.1883 19.0519 27.1911C22.3192 22.1939 26.5409 17.8909 31.4748 14.5288C36.4088 11.1667 41.9579 8.81175 47.8039 7.59897C53.65 6.3862 59.678 6.33948 65.5421 7.46148C71.4063 8.58349 76.9913 10.8522 81.9768 14.1373C86.9621 17.4225 91.2501 21.6596 94.5944 26.6057C97.9387 31.5516 100.274 37.1092 101.465 42.9595C102.657 48.81 102.682 54.838 101.539 60.6981C98.5886 76.4404 90.0304 87.1322 73.3264 94.696C65.2498 98.3552 34.8759 101.157 19.8854 78.0546ZM33.7836 45.6358C34.8629 49.1602 36.8206 52.3524 39.4729 54.9122C42.1251 57.4719 45.3847 59.3152 48.9452 60.2687C52.5057 61.2222 56.2502 61.2547 59.8267 60.363C63.4033 59.4713 66.6944 57.6849 69.3906 55.1715C84.817 40.7825 72.3921 15.0075 51.3307 17.9463C48.2563 18.4086 45.3173 19.5263 42.7128 21.2237C40.1083 22.9211 37.8991 25.1587 36.2351 27.7847C34.5709 30.4107 33.4908 33.3637 33.0678 36.4437C32.6449 39.5236 32.889 42.6585 33.7836 45.6358ZM40.9246 92.2061C40.8163 92.5754 41.1477 92.6537 41.491 92.7672C63.4241 100.036 83.4506 91.932 93.8619 75.4486C94.1321 75.0231 94.1529 74.9174 93.7627 74.6029C79.9832 61.1575 45.6839 70.4126 40.9246 92.2061Z" fill="#AEAEAF"/>
<path d="M61.1766 30.4702C61.1505 35.7633 54.6086 38.0392 54.3384 42.5376C54.2171 44.5447 56.6339 45.881 55.1306 47.1051C53.9208 48.0864 52.4501 45.5391 52.039 43.2383C52.0146 42.483 52.0764 41.7273 52.223 40.9859C53.1509 36.4589 59.1174 34.3435 58.6032 30.0761C58.089 25.8088 53.3336 26.567 49.938 29.9117C48.6852 31.1449 48.9645 32.0532 48.5938 32.7566C48.1045 33.6805 46.8543 33.0528 46.7473 32.0206C46.2696 27.4244 55.543 20.9372 60.1718 27.2678C60.8501 28.1956 61.2034 29.3213 61.1766 30.4702Z" fill="#AEAEAF"/>
<path d="M56.1787 53.5765C55.9405 53.442 55.7368 53.2539 55.5839 53.0271C55.4309 52.8003 55.3328 52.541 55.2972 52.2698C55.2617 51.9985 55.2896 51.7228 55.379 51.4642C55.4683 51.2056 55.6165 50.9713 55.812 50.7799C55.9807 50.6105 56.1852 50.481 56.4106 50.4009C56.636 50.3209 56.8763 50.2923 57.1141 50.3174C57.352 50.3425 57.5812 50.4205 57.7849 50.5456C57.9886 50.6708 58.1618 50.8401 58.2915 51.0409C59.0393 52.3302 57.7134 54.3569 56.1787 53.5765Z" fill="#AEAEAF"/>
<path d="M26.8071 233.785C45.3172 228.717 90.5733 223.133 109.632 220.88C155.398 215.471 203.051 210.943 248.745 208.827C248.883 208.826 249.017 208.878 249.119 208.973C249.221 209.067 249.281 209.198 249.289 209.336C249.297 209.476 249.25 209.611 249.16 209.717C249.07 209.823 248.942 209.889 248.803 209.902C191.896 213.687 60.5622 227.573 27.3174 235.984C26.6309 236.156 26.1298 233.971 26.8071 233.785Z" fill="#AEAEAF"/>
<path d="M185.962 149.879C185.674 149.227 186.978 149.963 187.461 148.607C188.61 145.373 188.625 144.359 187.129 143.239C185.349 142.091 183.432 141.17 181.422 140.499C180.92 140.345 182.006 139.846 183.24 138.343C183.553 137.963 183.456 138.109 186.439 139.598C190.078 141.416 190.305 141.215 190.745 142.385C191.317 143.735 192.37 144.825 193.701 145.441C196.401 146.818 199.027 148.128 201.181 145.839C201.45 145.553 201.432 145.586 202.938 146.38C209.832 150.017 209.643 149.308 209.806 150.07C209.995 150.877 210.372 151.629 210.906 152.263C211.44 152.899 212.115 153.399 212.878 153.724C215.09 154.91 216.206 155.744 218.443 154.979C224.968 152.748 228.842 143.529 225.867 140.595C223.318 138.085 221.935 136.351 218.413 137.125C217.867 137.245 218.304 137.249 211.428 132.436C210.714 131.937 210.704 131.811 210.815 131.404C210.927 130.983 210.938 130.54 210.845 130.114C210.752 129.687 210.559 129.289 210.281 128.952C206.443 123.882 202.973 124.065 201.733 124.142C201.615 124.156 201.493 124.142 201.38 124.101C201.266 124.061 201.164 123.995 201.081 123.908C195.469 117.445 155.899 89.9654 146.287 83.4874C145.331 82.8427 145.929 82.6248 145.676 81.7348C144.762 78.5153 139.876 74.1475 136.932 73.0134C125.286 68.5282 111.099 83.52 112.323 95.8601C112.996 102.646 116.446 105.209 122.662 107.673C123.763 108.1 124.953 108.246 126.124 108.096C127.348 107.755 128.523 107.259 129.62 106.619C130.773 105.855 130.163 107.8 166.552 128.84C167.134 129.177 166.894 129.148 166.873 129.808C166.763 132.384 167.332 134.942 168.524 137.228C168.799 137.75 168.393 137.489 166.684 137.439C162.172 137.295 161.777 138.571 161.761 143.014C161.761 143.941 162.296 144.359 163.224 144.878C164.584 145.642 164.636 145.678 164.558 145.946C164.412 146.444 127.459 250.448 127.402 252.075C127.359 253.312 128.669 254.254 129.881 254.472C130.162 254.523 131.286 251.746 133.3 246.68C138.057 234.722 150.246 205.524 152.421 199.981C170.751 153.262 168.104 159.599 170.723 153.159C171.1 152.232 171.089 153.014 171.307 156.668C171.41 158.389 177.368 243.221 177.712 247.265C178.023 250.889 178.173 250.881 178.669 250.919C179.222 251.058 179.802 251.061 180.356 250.928C180.912 250.795 181.426 250.529 181.857 250.154C182.536 249.332 182.314 249.041 182.011 240.497C181.839 235.646 178.974 155.752 178.998 155.749C178.998 152.356 209.242 227.683 219.403 250.299C219.815 251.212 220.371 250.779 221.799 250.078C222.317 249.718 222.69 249.186 222.851 248.575C223.011 247.964 222.95 247.317 222.677 246.748C218.487 235.481 185.962 149.879 185.962 149.879ZM225.316 141.397C226.591 142.768 226.201 146.409 223.75 149.831C222.027 152.235 218.854 155.095 216.154 154.029C214.588 153.412 213.956 151.68 214.987 148.418C216.468 143.718 222.713 138.591 225.315 141.395L225.316 141.397ZM220.424 138.004C221.325 138.13 222.159 138.558 222.787 139.219C222.9 139.32 223.271 139.699 222.579 139.701C218.678 140.157 213.712 146.008 213.444 150.624C213.341 152.36 213.705 152.614 213.177 152.428C209.509 151.142 210.538 145.86 213.473 142.04C214.47 140.768 215.672 139.67 217.031 138.793C218.047 138.173 219.236 137.897 220.422 138.004H220.424ZM216.77 137.368C217.507 137.847 216.077 137.395 213.315 140.5C208.056 146.408 210.803 149.195 208.878 148.352C208.084 148.004 206.566 147.14 203.243 145.415C197.893 142.636 197.946 142.665 198.023 142.066C198.468 139.664 199.456 137.394 200.911 135.431C202.158 133.624 203.735 132.068 205.56 130.848C206.063 130.497 206.366 130.247 207.015 130.697C207.987 131.377 210.339 133.193 216.76 137.368H216.77ZM205.74 126.026C207.764 127.371 209.55 129.289 208.771 128.926C206.716 127.968 204.259 130.125 202.409 131.849C199.778 134.297 197.888 137.435 196.951 140.903C196.721 141.605 196.633 142.347 196.692 143.083C196.751 143.819 196.954 144.536 197.292 145.193C197.436 145.416 197.765 145.976 197.031 145.753C195.489 145.296 194.05 144.547 192.79 143.546C191.52 142.49 191.245 140.235 191.265 138.642C191.357 130.707 200.661 122.657 205.733 126.026H205.74ZM124.808 106.531C124.66 106.746 124.4 106.707 124.155 106.615C119.86 104.994 114.647 102.988 113.846 96.7201C112.671 87.5016 119.281 77.3904 128.592 74.4046C131.1 73.4361 133.868 73.3666 136.422 74.2075C139.016 75.5018 141.303 77.338 143.126 79.592C142.034 79.1747 140.853 79.0401 139.694 79.2005C129.635 80.4167 118.39 100.221 124.346 105.993C124.554 106.196 124.864 106.448 124.808 106.531ZM124.659 101.374C124.513 101.312 124.395 101.199 124.326 101.057C124.257 100.915 124.242 100.752 124.284 100.6C126.381 88.3146 136.641 80.6255 139.313 80.7221C139.797 80.6895 139.759 80.649 143.836 83.503C160.356 95.064 183.995 110.875 200.163 124.309C200.781 124.822 196.53 124.881 192.493 130.86C188.781 136.357 190.64 140.55 189.8 140.107C157.878 123.307 127.829 103.005 124.659 101.374ZM163.744 138.827C164.527 137.981 168.489 138.697 168.964 138.749C169.179 138.759 169.389 138.819 169.577 138.922C169.766 139.027 169.928 139.173 170.052 139.349C171.172 140.7 172.713 141.635 174.428 142.005C176.142 142.374 177.931 142.156 179.508 141.386C179.77 141.205 180.091 141.126 180.407 141.168C182.263 141.739 184.047 142.518 185.726 143.491C190.954 146.772 176.942 145.643 167.317 141.675C166.312 141.256 163.001 139.621 163.744 138.823V138.827ZM183.406 148.581C172.251 148.616 162.769 144.286 162.83 143.068C162.917 141.338 162.88 140.149 163.404 140.637C167.258 144.218 182.138 147.22 186.691 146.237C186.931 146.185 186.978 146.26 186.952 146.434C186.851 147.004 186.71 147.567 186.531 148.117C186.201 148.736 185.529 148.57 183.406 148.577V148.581Z" fill="#AEAEAF"/>
<path d="M216.693 151.605C217.507 153.563 220.944 151.597 222.817 148.498C223.669 147.089 224.507 145.562 224.234 144.155C223.908 142.459 221.961 142.649 220.689 143.606C218.341 145.369 215.893 149.11 216.693 151.605Z" fill="#AEAEAF"/>
<path d="M60.2737 146.966C61.6674 146.966 61.6061 147.044 61.5787 146.575C61.5787 146.575 61.3608 144.393 61.1637 141.716C61.1024 140.883 62.8915 140.073 63.0664 144.996C63.1447 147.214 63.2648 147.084 63.651 147.093C68.5866 147.197 68.6505 146.952 68.8267 147.375C68.9872 147.766 66.8509 148.365 66.4398 148.442C63.4501 148.998 63.4383 148.442 63.4383 149.272C63.4749 154.809 63.4592 153.696 63.5988 154.834C63.6262 155.052 63.3874 155.047 63.3026 154.981C62.4296 154.312 61.9976 151.15 61.9637 150.39C61.8775 148.663 61.7484 148.767 61.4064 148.741C58.957 148.553 58.3619 148.604 58.3227 148.045C58.2405 146.897 59.1162 146.966 60.2737 146.966Z" fill="#AEAEAF"/>
<path d="M156.22 30.4962C156.22 33.2367 156.101 33.1845 156.574 33.1858C158.452 33.1858 158.923 33.2471 159.624 33.2876C160.324 33.328 160.26 33.8239 159.922 34.0314C158.988 34.5952 157.915 34.8888 156.824 34.8797C156.002 34.9593 156.387 34.6813 155.972 38.5036C155.736 40.6895 155.534 41.56 155.111 41.2559C154.334 40.6973 154.474 36.9885 154.35 35.2633C154.321 34.8483 154.41 34.8092 152.325 34.8131C151.92 34.8131 151.373 34.8614 151.255 34.3681C151.073 33.6138 151.201 33.2445 152.69 33.1936C154.409 33.131 154.47 33.2523 154.487 32.87C154.521 31.2197 154.645 29.5724 154.859 27.9358C154.859 27.7564 154.931 27.5844 155.057 27.4577C155.184 27.331 155.356 27.2598 155.535 27.2598C155.714 27.2598 155.886 27.331 156.013 27.4577C156.139 27.5844 156.211 27.7564 156.211 27.9358C156.258 28.7884 156.261 29.6431 156.22 30.4962Z" fill="#AEAEAF"/>
<path d="M224.752 75.7301C225.096 75.8371 224.41 76.4636 223.838 76.7142C223.199 76.913 222.539 77.0395 221.871 77.0913C221.718 77.1148 221.427 77.0913 221.379 77.3275C221.2 78.2176 221.124 79.4965 220.774 81.634C220.513 83.2314 220.238 83.3449 219.991 83.3827C219.799 83.4115 219.469 83.1622 219.493 81.7071C219.524 80.055 219.614 77.8182 219.66 77.5546C219.719 77.2231 219.075 77.3014 217.394 77.4815C217.226 77.5007 217.058 77.4595 216.917 77.3653C216.777 77.271 216.674 77.1298 216.628 76.9672C216.583 76.8045 216.597 76.6308 216.667 76.4773C216.738 76.3239 216.861 76.2006 217.015 76.1294C217.77 75.7522 218.59 75.5182 219.431 75.4391C219.582 75.4038 219.755 75.5069 219.84 75.2668C220.141 74.4212 220.062 72.3007 220.338 71.2215C220.633 70.0691 221.47 70.4083 221.492 71.2892C221.637 77.4671 220.738 74.4825 224.752 75.7301Z" fill="#AEAEAF"/>
</svg>
