<svg width="247" height="247" viewBox="0 0 247 247" fill="none" xmlns="http://www.w3.org/2000/svg">
<path d="M186.75 204.985C186.652 207.846 185.121 210.208 183.321 210.208C182.264 210.208 181.298 209.393 180.663 208.141C180.291 208.325 179.917 208.51 179.537 208.695C180.379 210.372 181.747 211.444 183.321 211.444C185.18 211.444 186.771 211.339 188.292 209.899C190.013 208.27 190.609 205.523 190.249 203.044C189.144 203.673 187.978 204.322 186.75 204.987V204.985Z" fill="#AEAEAF"/>
<path d="M77.348 200.95C75.6425 199.086 72.103 199.574 71.2743 200.074C66.6974 201.772 66.9715 211.488 71.6868 212.575C73.1638 212.915 75.6054 212.631 77.1269 211.193C79.7711 208.69 79.6118 203.424 77.348 200.95ZM69.2192 206.261C69.2192 203.464 70.6852 201.101 72.4191 201.101C74.1531 201.101 75.619 203.465 75.619 206.261C75.619 209.057 74.1531 211.422 72.4191 211.422C70.6852 211.422 69.2192 209.059 69.2192 206.261Z" fill="#AEAEAF"/>
<path d="M125.467 228.255C123.903 226.545 121.925 226.715 120.181 226.866C116.725 227.17 114.955 230.776 114.955 234.246C114.955 238.215 117.183 241.443 119.92 241.443C121.96 241.443 123.612 241.319 125.222 239.798C128.172 237.007 128.036 231.063 125.467 228.255ZM116.189 234.246C116.189 231.014 117.897 228.285 119.918 228.285C121.94 228.285 123.648 231.014 123.648 234.246C123.648 237.478 121.94 240.208 119.918 240.208C117.897 240.208 116.189 237.478 116.189 234.246Z" fill="#AEAEAF"/>
<path d="M233.952 130.242C200.902 113.376 166.916 101.095 133.063 93.4847C128.266 88.0223 122.442 81.5188 117.574 76.1787C112.089 70.1605 107.371 64.766 101.816 61.702C101.71 59.7791 100.375 58.3687 98.1034 57.8031C96.0187 57.2856 93.876 57.729 91.9852 58.123C82.6214 60.0681 25.1841 71.8907 16.1821 75.4945C14.3334 76.2342 13.2663 76.8641 12.7451 78.7302C12.0745 81.1397 12.1956 85.3325 14.5668 87.1109C15.7326 87.9865 17.3134 87.8198 18.5941 87.0911C19.9934 86.6898 21.8298 86.1809 24.0145 85.5857C26.077 87.5827 25.0408 86.4662 50.0397 114.336C50.2422 136.106 54.5956 160.729 62.7429 180.158C62.8096 180.32 62.7429 180.264 64.9202 182.153C65.5809 185.081 66.3997 189.396 68.5412 195.594C69.6996 198.945 72.634 200.796 75.4708 202.591C89.9882 211.772 104.492 220.113 119.298 227.733C119.502 227.688 119.71 227.665 119.921 227.665C121.134 227.665 122.23 228.417 123.018 229.629C124.175 230.213 125.334 230.792 126.494 231.367C128.909 232.564 131.611 233.847 134.362 233.847C144.354 233.847 181.414 216.328 188.73 212.504C190.861 211.39 195.576 209.487 196.475 207.066C197.299 204.852 195.137 203.328 193.119 202.13C197.107 199.832 200.996 197.396 204.778 194.827C205.508 194.329 223.562 163.298 234.256 130.984C234.354 130.69 234.218 130.377 233.951 130.239L233.952 130.242ZM19.4018 84.5989C18.6768 85.9907 16.5415 87.0491 15.3078 86.1229C13.601 84.8422 13.2663 81.4608 13.9344 79.0624C14.2728 77.8509 15.0645 77.0481 16.3427 77.0481C17.2862 77.0481 18.1853 77.5174 18.6361 78.0509C19.9415 79.5996 20.0687 83.3194 19.4018 84.5989ZM133.111 94.7617C166.379 102.269 199.729 114.382 232.274 130.778C216.348 138.389 200.221 145.268 183.695 150.153C182.796 150.418 170.548 154.522 154.35 158.291C146.935 156.397 139.301 154.333 131.59 152.006C132.713 133.282 133.196 114.287 133.109 94.763L133.111 94.7617ZM96.9635 184.261C89.3003 180.474 81.7631 176.139 74.531 171.108C73.8159 163.973 73.3404 156.81 73.1033 149.644C80.9011 154.497 89.0089 158.696 97.2414 162.378C96.9264 169.666 96.8326 176.967 96.9635 184.261ZM96.9907 185.651C97.1253 191.852 97.4217 198.045 97.8799 204.215C90.744 200.061 83.765 195.425 77.0516 190.369C76.1031 184.516 75.3189 178.63 74.6964 172.723C81.8965 177.663 89.3868 181.924 96.9907 185.651ZM97.3007 161.049C89.0212 157.325 80.8776 153.076 73.0564 148.157C72.8723 141.674 72.8835 135.191 73.0922 128.722C81.3432 133.628 89.9672 137.875 98.7505 141.601C98.0898 148.06 97.6069 154.548 97.3007 161.049ZM151.238 180.348C160.225 178.176 169.111 175.655 177.866 172.798C175.555 180.089 173.164 187.387 170.705 194.651C162.638 197.465 154.438 199.959 146.129 202.119C148.018 195.098 149.724 187.834 151.238 180.348ZM144.835 202.173C137.27 199.959 129.437 197.5 121.53 194.637C122.949 187.488 124.279 180.31 125.514 173.127C133.82 175.822 142.04 178.157 149.994 180.273C148.465 187.807 146.744 195.114 144.835 202.173ZM151.506 179.012C152.772 172.638 153.902 166.106 154.891 159.43C164.361 157.218 173.815 154.604 183.221 151.599C182.991 157.16 180.989 162.898 178.324 171.348C169.509 174.25 160.559 176.808 151.506 179.012ZM150.238 179.059C142.273 176.94 134.039 174.601 125.725 171.897C126.831 165.411 127.859 158.922 128.807 152.446C137.222 155.042 145.564 157.313 153.65 159.384C152.653 166.094 151.515 172.657 150.238 179.059ZM124.539 171.508C115.87 168.655 107.124 165.404 98.5109 161.589C98.8086 155.075 99.2853 148.574 99.9398 142.103C109.081 145.928 118.386 149.199 127.611 152.075C126.666 158.544 125.64 165.028 124.537 171.508H124.539ZM98.4529 162.914C107.02 166.687 115.713 169.91 124.327 172.739C123.096 179.91 121.771 187.074 120.356 194.21C112.975 191.502 105.539 188.433 98.2071 184.871C98.0639 177.555 98.1466 170.228 98.4529 162.914ZM120.112 195.435C118.891 201.545 117.604 207.632 116.254 213.682C110.503 211.095 104.791 208.178 99.1729 204.962C98.6974 198.745 98.385 192.506 98.238 186.258C105.485 189.75 112.826 192.767 120.111 195.435H120.112ZM121.287 195.862C129.167 198.712 136.973 201.159 144.511 203.365C142.744 209.803 140.82 216.031 138.744 222.03C131.641 219.957 124.495 217.327 117.406 214.195C118.765 208.116 120.059 202 121.288 195.861L121.287 195.862ZM145.757 203.491C154.019 201.362 162.176 198.907 170.203 196.133C168.098 202.32 165.946 208.483 163.752 214.594C156.126 217.459 148.231 219.904 140.088 221.917C142.126 215.99 144.019 209.841 145.757 203.491ZM171.682 195.617C179.717 192.795 187.617 189.655 195.358 186.207C193.135 191.993 190.793 197.726 188.332 203.392C180.966 207.392 173.269 210.937 165.271 214.016C167.452 207.922 169.591 201.782 171.682 195.617ZM172.185 194.13C174.633 186.879 177.012 179.597 179.312 172.322C187.472 169.62 195.518 166.624 203.425 163.342C201.127 170.481 198.644 177.566 195.982 184.575C188.205 188.076 180.263 191.264 172.185 194.13ZM179.77 170.868C182.324 162.747 184.33 156.98 184.469 151.197C192.924 148.463 201.339 145.413 209.688 142.055C207.925 148.667 205.999 155.254 203.918 161.8C196.001 165.113 187.943 168.139 179.77 170.868ZM130.329 151.622C102.891 143.249 74.5939 131.489 51.8514 112.126C71.7571 104.897 93.4388 99.5523 116.309 96.2042C121.446 95.4521 126.75 94.6185 131.873 94.6036C131.962 114.183 131.457 132.843 130.329 151.622ZM27.6602 84.6001C50.5263 78.4511 97.618 66.3431 98.8271 65.6565C99.4718 65.2909 100.241 64.8537 100.838 64.2498C105.82 67.8597 108.899 71.829 128.093 93.5082C124.103 93.7811 120.125 94.3986 116.132 94.9815C93.2498 98.321 71.5521 103.673 51.6217 110.896C46.7126 105.302 33.0214 89.7624 27.6602 84.6001ZM51.266 113.248C57.7461 118.744 64.6658 123.627 71.8819 127.995C71.6608 134.441 71.6336 140.901 71.8004 147.359C65.0289 143.017 58.5105 138.163 52.3701 132.703C51.6637 126.192 51.2846 119.651 51.266 113.248ZM52.5764 134.531C58.681 139.858 65.1425 144.601 71.8424 148.851C72.0585 155.968 72.5117 163.082 73.1972 170.169C67.3519 166.009 61.7154 161.381 56.3876 156.204C54.7302 149.202 53.4446 141.895 52.5764 134.531ZM63.826 179.552C61.1337 173.111 58.8156 165.967 56.931 158.434C62.1587 163.373 67.6644 167.802 73.3602 171.797C73.9567 177.651 74.7137 183.486 75.6289 189.29C71.5867 186.192 67.6446 182.942 63.826 179.552ZM195.318 206.637C194.615 208.527 189.894 210.503 188.158 211.41C178.455 216.479 142.608 233.015 134.067 232.607C131.725 232.499 129.59 231.524 127.042 230.262C109.817 221.729 92.8732 212.156 76.6391 201.871C73.827 200.09 70.7877 198.318 69.7083 195.192C68.3905 191.378 67.3062 187.446 66.4775 183.491C87.3626 201.233 112.802 215.856 138.965 223.383C139.071 223.413 139.175 223.414 139.281 223.389C158.229 218.806 175.868 211.91 191.9 202.828C193.338 203.761 195.924 205.009 195.318 206.637ZM203.971 193.884C199.493 196.921 194.866 199.769 190.099 202.423C192.498 196.838 194.785 191.19 196.956 185.492C202.371 183.043 207.706 180.443 212.953 177.694C210.049 183.3 207.034 188.744 203.973 193.884H203.971ZM213.938 175.779C208.575 178.628 203.118 181.32 197.575 183.854C200.202 176.876 202.655 169.822 204.923 162.719C211.443 159.978 217.866 157.043 224.182 153.919C221.048 161.243 217.588 168.628 213.938 175.78V175.779ZM224.926 152.169C218.531 155.367 212.023 158.368 205.416 161.17C207.475 154.641 209.379 148.072 211.123 141.475C218.344 138.539 225.516 135.371 232.623 131.978C230.431 138.471 227.827 145.282 224.926 152.169Z" fill="#AEAEAF"/>
<path d="M143.428 146.979C159.531 140.195 171.434 125.737 175.676 109.502C178.352 99.259 178.189 87.4907 185.948 72.7756C188.671 67.6109 192.413 61.6236 197.678 58.8547C199.383 57.9581 201.214 57.6259 203.073 57.2183C203.513 57.122 203.544 56.3699 203.073 56.297C199.798 55.7931 196.475 57.6901 194.02 59.7007C191.294 61.9336 189.139 64.8296 187.326 67.8282C175.461 87.4326 178.292 100.887 173.067 114.918C167.817 129.012 156.768 140.644 143.391 146.885C143.339 146.909 143.377 147 143.43 146.978L143.428 146.979Z" fill="#AEAEAF"/>
<path d="M222.212 49.0453C221.332 48.9156 220.428 48.9749 219.571 49.2182C219.485 48.7489 219.289 48.3018 218.978 47.9399C219.09 47.5052 219.135 46.8519 219.823 46.0207C220.04 45.7577 220.003 45.3687 219.741 45.1513C219.479 44.9339 219.089 44.971 218.872 45.2328C218.386 45.8207 218.042 46.5086 217.86 47.2434C216.192 46.8531 215.191 47.7695 214.876 48.9279C213.047 47.2051 211.103 45.5885 209.078 44.1102C208.209 43.4754 207.4 43.4458 206.547 44.6227C205.443 46.143 204.285 48.1239 205.133 49.9715C205.595 50.9768 206.487 51.5832 207.531 51.9265C206.666 53.9544 207.65 56.2651 210.173 56.6788C209.962 56.9764 209.768 57.2629 209.595 57.5359C209.407 57.836 209.055 58.3954 209.135 59.0376C209.258 60.0084 210.512 61.2248 212.383 61.2248C215.178 61.2248 216.966 58.6857 217.175 55.8303C217.264 54.6238 217.103 53.4443 216.876 52.2933C217.938 52.3229 219.138 51.5881 219.487 50.5396C219.508 50.5347 219.527 50.5285 219.547 50.5211C220.34 50.2309 221.198 50.1419 222.033 50.2667C222.368 50.3161 222.684 50.0839 222.733 49.7455C222.783 49.4071 222.551 49.0947 222.212 49.0453ZM206.255 49.4565C205.674 48.1919 206.64 46.5975 207.545 45.3489C207.832 44.9525 207.957 44.9092 207.997 44.9092C208.253 44.866 212.336 48.1894 214.535 50.3099C212.513 51.3078 207.272 51.6733 206.254 49.4577L206.255 49.4565ZM208.589 54.1446C208.359 53.574 208.412 52.8738 208.769 52.2118C209.277 52.2859 209.794 52.3168 210.294 52.3168C211.576 52.3168 213.189 52.1451 214.481 51.6721C213.131 53.0615 211.978 54.3545 211.056 55.513C210.041 55.5339 208.963 55.0745 208.59 54.1458L208.589 54.1446ZM215.945 55.7402C215.826 57.3531 215.163 58.7017 214.123 59.4403C213.116 60.1553 211.449 60.2492 210.57 59.2501C210.272 58.9117 210.287 58.7561 210.64 58.1954C211.347 57.0765 212.774 55.1647 215.612 52.2773C215.85 53.4283 216.027 54.5953 215.943 55.7414L215.945 55.7402ZM217.985 50.631C216.931 51.409 216.248 51.0793 216.047 50.0913C215.878 49.2614 216.199 48.3932 217.13 48.3932C217.744 48.3932 218.182 48.6488 218.343 49.3676C218.432 49.7628 218.391 50.3297 217.985 50.6298V50.631Z" fill="#AEAEAF"/>
<path d="M146.691 62.9499C145.766 59.9846 144.6 56.5834 142.378 54.3864C142.456 53.2378 142.33 52.0596 142.127 50.9629C139.412 36.322 125.912 22.7444 111.152 19.9916C110.213 19.8162 109.798 21.2266 110.752 21.4427C119.269 23.378 126.863 27.8116 132.586 34.4424C138.164 40.9076 141.172 49.0833 141.281 53.4712C140.342 52.8266 139.263 52.424 138.098 52.5018C136.178 52.6302 134.125 53.901 133.605 55.84C133.113 57.6739 134.349 59.4634 136.164 59.8475C138.493 60.3415 141.218 59.1214 142.095 56.0573C143.828 58.2247 144.948 61.6012 145.718 64.2083C148.738 74.4489 148.258 85.5232 145.203 95.6946C142.226 105.601 136.895 114.536 130.527 122.62C129.774 123.576 129.014 124.524 128.271 125.488C128.072 125.745 128.494 126.051 128.714 125.83C135.187 119.34 142.308 108.287 145.919 97.2569C149.521 86.2481 150.164 74.0772 146.692 62.9486L146.691 62.9499ZM139.366 58.1828C138.052 58.9892 135.654 59.1942 134.924 57.4924C134.128 55.6374 136.387 54.0332 137.994 53.859C139.212 53.7269 140.292 54.2765 141.185 55.0829C140.987 56.3426 140.465 57.5072 139.366 58.1828Z" fill="#AEAEAF"/>
<path d="M105.885 15.0914C107.297 13.4575 107.817 11.0505 106.973 8.23714C106.606 7.01202 106.085 6.12529 105.384 5.52632C105.126 5.30525 104.739 5.33489 104.517 5.59054C101.874 8.62864 99.9596 11.6741 97.9354 14.9877C97.0635 14.0886 95.2715 13.7947 94.2082 14.6209C93.8315 14.4838 92.9534 14.3504 91.9395 13.4328C91.6863 13.2031 91.2961 13.2228 91.0676 13.476C90.8391 13.7292 90.8576 14.1195 91.1108 14.3492C91.7715 14.9469 92.5558 15.4002 93.4017 15.6743C93.1943 16.1621 93.13 16.6277 93.1831 17.0662C93.1671 17.081 93.151 17.0958 93.1362 17.1119C92.6706 17.6207 92.0753 17.9949 91.4134 18.1925C91.0861 18.2901 90.9009 18.6334 90.9984 18.9607C91.0935 19.2805 91.4331 19.4744 91.7666 19.3756C92.4965 19.1583 93.1658 18.7779 93.7253 18.2666C94.3626 18.9619 95.3345 19.3793 96.3114 19.1891C96.5423 19.1434 96.7622 19.0644 96.9659 18.9582C96.8659 20.8317 96.6967 24.0822 95.7384 29.6199C95.6717 30.004 95.9718 30.3461 96.3521 30.3424C101.197 30.2992 104.932 25.6432 104.449 21.6357C106.277 21.2936 107.375 20.1203 107.644 18.8421C107.964 17.3218 107.082 15.8942 105.885 15.0902V15.0914ZM105.006 6.91816C105.322 7.33806 105.581 7.89011 105.791 8.59035C107.213 13.3291 104.223 16.85 98.7703 15.9893C100.77 12.7116 102.554 9.82659 105.006 6.91693V6.91816ZM94.6614 17.4552C94.328 17.1217 94.3638 16.6043 94.5083 16.2301C94.9912 14.984 96.6646 15.2767 97.129 15.9411C97.7699 16.8599 96.2237 19.0162 94.6614 17.4552ZM97.0894 29.0469C98.1083 22.8608 98.1911 18.7766 98.301 17.7751C99.4755 17.7825 101.032 18.2666 102.113 19.4151C105.056 22.536 101.895 28.3689 97.0894 29.0469ZM106.437 18.5877C106.22 19.6189 105.184 20.2673 104.172 20.4464C103.931 19.7745 103.551 19.1385 103.013 18.5679C102.517 18.0431 101.948 17.6306 101.351 17.3181C102.74 17.1748 103.962 16.7068 104.937 15.9757C106.119 16.6043 106.629 17.6812 106.437 18.5877Z" fill="#AEAEAF"/>
</svg>
