<svg width="159" height="31" viewBox="0 0 159 31" fill="none" xmlns="http://www.w3.org/2000/svg">
<path d="M41.5384 2.07087V30.0663H36.4233V2.07087H41.5384Z" fill="#EDE8C8"/>
<path d="M70.2817 2.07087V30.0663H65.7318L52.427 10.9972H52.1926V30.0663H47.0775V2.07087H51.6549L64.946 21.1537H65.1941V2.07087H70.2817Z" fill="#EDE8C8"/>
<path d="M75.8552 30.0663V2.07087H94.22V6.32213H80.9703V13.9225H93.2687V18.1737H80.9703V25.8151H94.3303V30.0663H75.8552Z" fill="#EDE8C8"/>
<path d="M99.4385 2.07087H105.698L114.081 22.3567H114.412L122.794 2.07087H129.054V30.0663H124.145V10.8331H123.883L116.08 29.9843H112.412L104.609 10.7921H104.347V30.0663H99.4385V2.07087Z" fill="#EDE8C8"/>
<path d="M138.25 30.0663H132.79L142.731 2.07087H149.045L159 30.0663H153.54L145.998 7.81213H145.778L138.25 30.0663ZM138.429 19.0896H153.32V23.1632H138.429V19.0896Z" fill="#EDE8C8"/>
<path fill-rule="evenodd" clip-rule="evenodd" d="M18.1445 1.40733C18.3828 1.03709 18.7951 0.812988 19.2381 0.812988H27.4278C28.4521 0.812988 29.0724 1.93484 28.5213 2.79101L11.045 29.946C10.8068 30.3162 10.3944 30.5403 9.95143 30.5403H1.76177C0.737402 30.5403 0.117162 29.4185 0.668175 28.5623L18.1445 1.40733ZM19.1171 2.79981H26.694L23.6841 7.29827H16.1072L19.1171 2.79981ZM22.308 9.54751H14.7311L11.7212 14.046H19.2981L22.308 9.54751ZM10.3452 16.5201H17.9221L14.9122 21.0186H7.33528L10.3452 16.5201ZM13.3849 23.4927H5.80797L2.79809 27.9912H10.375L13.3849 23.4927Z" fill="#EDE8C8"/>
<path fill-rule="evenodd" clip-rule="evenodd" d="M1.29774 0.812988C0.581289 0.812988 0.000488281 1.38883 0.000488281 2.09917V27.1659L10.2624 11.3283C10.3968 11.121 10.4682 10.8797 10.4682 10.6332V2.09917C10.4682 1.38883 9.8874 0.812988 9.17095 0.812988H1.29774ZM17.0532 22.8574C16.791 23.267 16.7837 23.7881 17.0342 24.2049L20.5156 29.997C20.7496 30.3863 21.1729 30.6247 21.63 30.6247H30.2501C31.2565 30.6247 31.8796 29.5378 31.3647 28.6805L23.7113 15.9387C23.2165 15.115 22.0194 15.0982 21.5014 15.9076L17.0532 22.8574Z" fill="#D82111"/>
</svg>
