<svg width="265" height="265" viewBox="0 0 265 265" fill="none" xmlns="http://www.w3.org/2000/svg">
<path d="M7.95386 138.216C7.13501 138.236 6.89519 137.284 7.37086 137.121C7.96579 136.917 53.241 129.616 68.5368 127.193C148.038 114.596 256.878 102.472 257.667 102.689C258.056 102.797 257.866 103.308 257.319 103.396C250.315 104.523 222.652 108.032 222.198 108.082C139.404 117.315 7.98434 138.21 7.95386 138.216Z" fill="#AEAEAF"/>
<path d="M32.2319 182.035C32.3485 180.812 32.4678 180.433 32.4188 177.814C32.2412 168.207 38.6237 167.713 52.6754 162.868C87.3996 150.892 74.2252 156.184 109.748 145.659C109.776 145.651 134.233 138.958 134.264 138.95C183.368 125.81 181.712 124.301 196.986 136.713C201.033 140.001 224.028 162.372 230.072 169.551C235.757 176.306 238.724 179.638 238.471 183.512C238.261 186.715 238.023 190.909 236.596 194.07C235.503 196.491 234.646 197.466 214.162 206.949C209.887 208.929 196.936 214.928 191.244 216.985C165.161 226.409 107.57 246.492 80.503 252.538C70.8689 254.69 68.0348 253.3 60.8586 243.323C50.0187 228.251 37.8089 202.13 33.3502 188.718C32.8666 187.262 32.2425 183.978 32.2319 182.035ZM179.498 129.309C179.498 129.412 178.305 129.221 177.379 129.357C169.352 130.543 93.651 151.004 64.0704 160.456C37.4511 168.963 31.6026 170.399 34.6474 178.619C38.0089 187.698 48.1015 210.956 53.5446 220.392C66.6077 243.039 71.2187 245.415 83.1861 242.955C113.976 236.624 224.117 199.493 234.802 187.226C239.84 181.443 236.699 178.611 222.132 163.286C210.538 151.09 198.506 139.538 195.451 137.054C190.401 132.948 185.499 129.309 179.498 129.309ZM193.773 210.882C193.753 212.56 194.813 212.201 196.271 211.678C204.23 208.816 205.464 207.98 205.48 207.025C205.521 204.697 204.82 205.13 197.955 207.968C194.248 209.5 193.789 209.474 193.772 210.882H193.773ZM209.187 204.549C209.187 205.795 209.787 206.073 210.609 205.742C212.285 205.065 213.288 204.698 219.07 201.93C220.532 201.23 220.802 200.503 220.614 199.587C220.443 198.758 220.188 198.616 219.376 198.89C218.583 199.159 217.788 199.442 217.026 199.789C209.396 203.255 209.102 203.156 209.187 204.549Z" fill="#AEAEAF"/>
<path d="M215.761 165.771C218.03 165.979 219.062 166.738 224.07 172.448C225.505 174.084 227.825 176.305 228.943 179.505C229.631 181.472 228.371 183.602 226.887 184.597C208.015 197.247 132.468 222.683 114.444 227.882C78.684 238.196 73.8239 244.974 57.6112 216.136C50.2773 203.09 41.4581 182.679 41.1017 181.79C39.207 177.063 40.1967 173.897 45.3576 171.735C46.4309 171.286 52.1204 168.135 70.8387 162.848C125.771 147.335 172.157 131.202 182.814 134.153C184.779 134.697 189.922 137.512 193.763 141.399C194.02 141.66 194.024 141.993 194.154 142.283C194.184 142.35 194.074 142.487 194.017 142.586C191.987 146.117 191.488 145.683 195.852 150.161C195.88 150.19 205.188 159.838 210.437 165.154C211.415 166.143 211.982 165.424 215.761 165.771ZM211.831 167.231C208.588 167.205 207.718 164.414 196.524 153.123C189.824 146.364 190.326 145.823 192.508 142.268C192.585 142.144 192.665 142.056 192.5 141.917C182.033 133.085 179.952 134.127 167.684 137.052C160.854 138.68 154.307 139.836 124.036 148.86C41.9285 173.34 38.1735 171.693 42.6732 182.503C42.6851 182.531 53.0771 205.269 58.495 214.849C63.4757 223.656 71.9596 235.196 80.0408 235.081C94.6079 234.871 209.199 196.265 226.802 182.926C228.356 181.748 228.07 179.896 226.958 178.292C225.893 176.758 222.419 172.69 222.062 172.294C216.847 166.513 217.772 167.278 211.831 167.231Z" fill="#AEAEAF"/>
<path d="M208.219 156.407C207.803 156.858 207.414 157.276 206.463 156.795C205.746 156.432 198.41 149.308 197.746 148.322C197.217 147.538 198.216 146.663 198.72 147.019C200.602 148.352 207.367 154.686 208.219 156.407Z" fill="#AEAEAF"/>
<path d="M212.865 160.638C212.62 161.93 209.607 161.547 209.17 160.15C208.492 157.986 213.28 158.457 212.865 160.638Z" fill="#AEAEAF"/>
<path d="M222.405 183.122C221.182 183.187 220.806 182.366 218.999 179.664C218.734 179.267 218.526 178.841 218.789 178.359C218.877 178.2 218.971 178.008 219.115 177.92C219.921 177.429 221.335 176.652 222.081 177.235C222.921 177.893 225.369 180.786 224.765 181.658C224.19 182.488 223.411 182.998 222.407 183.122H222.405ZM223.782 181.148C223.697 180.851 223.867 181.094 222.943 179.798C222.726 179.492 222.568 179.754 221.091 180.653C220.909 180.763 220.94 180.727 221.733 181.97C221.996 182.38 222.163 182.353 223.537 181.497C223.656 181.422 223.714 181.248 223.782 181.148Z" fill="#AEAEAF"/>
<path d="M219.347 173.281C220.276 173.247 221.043 174.428 220.694 174.757C220.408 175.026 218.007 176.091 217.681 176.229C217.203 176.432 216.892 176.631 216.317 175.694C216.037 175.238 216.054 174.874 216.807 174.499C219.328 173.244 218.961 173.423 219.347 173.281Z" fill="#AEAEAF"/>
<path d="M187.506 141.093C187.815 141.835 186.532 142.468 185.679 142.627C183.15 143.099 183.318 140.522 185.863 140.486C186.679 140.474 187.22 140.408 187.506 141.093Z" fill="#AEAEAF"/>
<path d="M188.487 142.342C188.974 142.342 189.283 142.274 189.453 142.797C189.649 143.4 189.649 143.359 189.268 143.771C188.788 144.293 188.156 144.517 187.468 144.584C185.846 144.741 185.842 142.11 188.487 142.342Z" fill="#AEAEAF"/>
<path d="M214.564 173.417C214.014 172.73 214.283 172.671 216.603 171.639C216.832 171.537 217.32 171.943 217.464 172.112C218.114 172.878 217.41 173.122 215.878 173.908C215.388 174.159 214.924 173.868 214.564 173.417Z" fill="#AEAEAF"/>
<path d="M215.592 170.735C215.249 171.186 215.595 171.128 213.811 171.958C213.599 172.058 213.308 171.769 213.171 171.622C212.657 171.068 212.665 170.921 213.296 170.506C213.644 170.277 214.015 170.068 214.401 169.914C214.842 169.739 215.551 170.195 215.593 170.735H215.592Z" fill="#AEAEAF"/>
<path d="M181.415 136.681C182.491 137.564 180.625 137.898 179.288 138.32C178.518 138.563 177.754 137.734 181.415 136.681Z" fill="#AEAEAF"/>
<path d="M180.619 139.365C180.525 139.28 180.118 139.099 180.469 138.737C180.715 138.483 180.975 138.352 182.585 137.898C183.23 137.717 183.335 138.495 182.891 138.652C180.647 139.443 180.872 139.355 180.62 139.366L180.619 139.365Z" fill="#AEAEAF"/>
<path d="M184.797 139.957C184.488 140.034 184.298 139.747 184.055 139.586C184.003 139.551 184 139.354 184.047 139.277C184.324 138.816 185.509 138.51 185.411 139.492C185.378 139.826 185.224 139.95 184.797 139.957Z" fill="#AEAEAF"/>
<path d="M182.791 140.796C181.942 140.781 181.982 139.712 182.692 139.68C183.003 139.667 183.439 140.029 183.431 140.295C183.422 140.569 183.128 140.802 182.791 140.796Z" fill="#AEAEAF"/>
<path d="M132.811 75.0412C132.811 77.1732 132.655 76.9996 133.635 77.2752C135.459 77.7893 160.69 179.314 162.968 189.775C163.065 190.216 163.189 190.15 164.387 190.332C164.871 190.407 165.311 190.632 165.777 190.743C166.664 190.954 167.272 191.5 167.705 192.247C168.523 193.658 168.158 194.159 167.971 195.778C167.449 200.312 160.713 200.621 157.961 199.157C155.518 197.857 155.936 195.725 155.645 195.019C155.866 192.631 156.355 192.108 157.179 191.21C157.7 190.642 157.612 191.13 139.647 180.803C132.125 176.478 130.798 175.749 129.455 174.932C128.922 174.609 128.965 174.748 126.121 176.515C104.085 190.208 108.336 187.522 102.883 191.02C102.251 191.426 104.142 191.917 104.566 194.078C104.72 194.863 104.597 195.575 104.207 196.972C103.056 201.094 96.3591 201.421 92.9021 199.478C89.0133 197.293 90.7106 190.155 95.572 190.246C96.6055 190.266 96.4545 190.433 110.403 126.37C110.412 126.328 121.775 78.469 122.659 77.6117C124.163 76.1503 122.191 72.5092 124.919 71.045C125.378 70.7986 125.854 70.6237 126.389 70.6091C128.072 70.5614 132.558 69.8154 132.811 73.483C132.823 73.6553 132.839 75.0412 132.811 75.0412ZM128.966 148.317C127.12 149.2 119.626 153.342 111.179 157.756C107.056 159.91 106.999 159.166 109.12 160.243C115.028 163.241 116.41 163.879 127.014 170.067C129.096 171.282 129.104 171.419 129.475 171.19C135.661 167.386 149.871 159.416 150.55 158.971C150.973 158.694 151.034 159.09 138.294 152.857C128.977 148.298 129.84 148.674 128.966 148.318V148.317ZM152.485 160.267C150.333 161.873 131.33 172.665 132.129 173.146C152.555 185.448 159.599 189.26 159.683 189.222C160.164 189.007 152.926 160.556 152.485 160.267ZM99.4066 189.262C99.5709 189.825 97.2429 190.619 125.834 173.378C126.454 173.004 126.68 173.357 113.56 165.915C105.181 161.163 105.682 160.903 105.507 161.67C101.588 178.87 105.539 161.69 99.4066 189.26V189.262ZM144.502 137.189C143.371 136.405 135.163 132.314 130.094 129.33C128.861 128.606 129.146 128.588 120.845 133.42C120.816 133.437 113.698 137.466 113.471 137.67C114.066 138.178 115.113 138.402 121.834 141.462C130.646 145.476 128.046 145.455 131.069 143.957C136.503 141.264 143.981 137.631 144.502 137.189ZM151.703 156.746C151.695 156.715 147.016 138.661 147.007 138.634C146.868 138.162 147.532 138.496 135.05 144.974C132.207 146.45 132.06 146.504 132.423 146.727C132.451 146.744 151.569 156.746 151.703 156.746ZM125.597 146.699C124.902 146.129 118.241 143.223 110.93 139.393C110.547 139.193 110.975 137.934 107.223 154.079C107.16 154.345 106.62 156.733 106.608 157.135C106.865 157.092 125.581 146.728 125.597 146.699ZM140.731 119.98C140.646 119.881 130.221 114.512 128.305 113.531C128.016 113.384 127.764 113.27 127.444 113.481C127.123 113.691 117.767 119.385 117.735 119.417C118.432 119.816 122.544 121.758 129.167 125.514C129.737 125.838 129.342 125.851 137.92 121.473C138.742 121.055 140.508 120.103 140.729 119.981L140.731 119.98ZM111.534 135.944C117.215 132.149 119.325 131.097 125.929 127.592C126.646 127.212 126.558 127.446 122.124 125.02C114.277 120.729 114.892 120.775 114.721 121.542C111.52 135.937 111.377 135.297 111.536 135.942L111.534 135.944ZM128.313 110.037C128.749 109.836 137.389 105.144 137.738 104.84C137.404 104.602 132.578 102.088 132.55 102.071C129.348 100.4 129.305 100.288 128.894 100.557C128.448 100.85 119.798 105.393 119.688 105.484C119.85 105.597 128.145 109.964 128.314 110.038L128.313 110.037ZM146.023 134.93C145.963 134.465 142.857 122.489 142.733 122.039C142.511 121.24 143.442 121.077 132.94 126.93C131.878 127.522 131.22 126.676 140.365 131.882C145.952 135.064 145.638 135.083 146.023 134.93ZM141.557 117.567C138.599 105.861 138.97 106.763 138.437 107.041C138.106 107.214 138.27 107.138 134.6 109.265C130.93 111.391 130.624 111.397 131.066 111.655C141.47 117.722 141.295 117.706 141.559 117.568L141.557 117.567ZM115.678 117.375C115.834 117.794 115.03 118.088 122.896 113.257C124.938 112.003 125.317 111.986 124.819 111.711C123.855 111.179 124.796 111.741 118.237 108.043C117.802 107.797 118.003 106.819 115.678 117.375ZM134.501 95.323C134.107 94.9692 133.574 94.7082 131.207 93.1593C128.814 91.5931 128.771 91.2288 128.099 91.6024C123.104 94.3796 123.177 93.8827 123.54 94.2816C123.565 94.3094 126.127 95.694 129.145 97.3821C129.615 97.6457 129.536 97.6828 134.501 95.323ZM118.948 102.93C119.146 103.496 118.516 103.008 126.002 99.3166C126.956 98.8462 126.957 99.2556 121.046 95.6741C120.536 95.3654 120.668 94.8778 118.948 102.93ZM101.654 192.87C100.892 192.21 100.608 192.621 98.7454 193.844C97.8537 194.429 96.0384 194.489 95.8847 193.251C95.7323 192.014 95.8172 191.824 95.5416 191.861C93.4428 192.144 92.563 193.846 93.1884 194.588C95.8278 197.718 104.537 195.365 101.654 192.87ZM132.573 86.7834C127.929 83.4497 127.862 82.9647 127.334 83.3053C124.405 85.1894 124.216 85.208 124.499 85.4067C129.019 88.5774 128.765 88.5735 129.211 88.3548C130.511 87.7215 132.15 87.0497 132.573 86.7834ZM161.621 195.594C163.317 195.546 164.025 195.028 164.337 194.959C165.479 194.709 166.429 193.388 165.413 192.442C164.912 191.975 164.257 192.002 163.668 191.827C163.515 191.782 163.393 191.884 163.419 192.068C163.506 192.698 162.42 193.716 161.315 193.116C159.143 191.936 159.089 191.864 158.745 192.105C158.111 192.552 157.451 193.577 157.989 194.254C158.98 195.503 160.035 195.402 161.621 195.594ZM136.146 96.5354C135.857 96.6917 136.088 96.5553 132.521 98.6196C132.203 98.8038 131.839 98.9654 132.158 99.1496C137.608 102.269 137.066 102.132 137.621 102.253C137.616 101.989 136.399 96.9514 136.146 96.5354ZM122.267 91.7641C125.897 89.762 125.75 89.8945 125.912 89.7872C126.26 89.5553 126.024 89.5261 122.919 87.1279C122.5 86.8046 122.574 87.0775 121.942 89.8521C121.19 93.1566 121.239 92.3298 122.267 91.7641ZM127.914 71.8838C127.914 71.9633 124.853 71.6029 124.774 72.8921C124.694 74.1813 130.12 74.1323 131.12 73.2061C132.206 72.2018 129.53 71.8838 127.914 71.8838ZM134.025 88.0342C133.694 88.1813 133.218 88.4622 133.011 88.5947C130.749 90.0508 130.822 89.9541 131.216 90.2655C135.372 93.5594 135.033 93.3527 135.436 93.5276C135.421 92.9579 134.349 88.5602 134.025 88.0342ZM133.243 84.5428C132.119 79.9914 132.255 79.9769 131.784 80.2922C129.585 81.7656 129.618 81.6517 129.929 81.9206C133.13 84.678 132.994 84.6501 133.243 84.5428ZM123.512 82.7554C123.625 83.0124 123.441 83.1635 125.325 81.7643C125.626 81.5417 125.52 81.5019 124.326 80.6142C123.893 80.2922 123.928 80.7732 123.512 82.7554Z" fill="#AEAEAF"/>
<path d="M222.29 65.3225C218.572 59.8198 216.634 62.6884 221.254 59.2023C221.685 58.8777 221.54 58.1569 220.84 58.3106C220.591 58.3649 220.442 58.455 218.116 59.6184C217.839 59.7575 217.402 60.0768 217.386 59.678C217.146 53.9951 217.581 51.9135 216.443 52.0685C215.927 52.1388 215.942 52.6688 215.942 53.0199C215.937 58.7995 216.036 58.6405 215.91 59.2302C215.389 58.9493 214.712 58.3345 213.209 57.6269C212.665 57.3712 211.403 57.032 211.283 57.5872C211.173 58.1 211.357 58.1225 211.836 58.4339C215.957 61.1157 215.778 60.8149 215.135 61.2031C214.314 61.6987 213.405 62.1372 212.672 62.5678C211.599 63.1985 212.239 64.4904 213.402 64.0293C214.045 63.7749 215.248 63.131 215.86 62.8143C216.418 62.5254 216.047 66.519 216.766 67.3233C217.259 66.8582 217.293 63.1151 217.443 62.4552C218.157 62.7189 220.814 65.3133 222.087 65.6551C222.254 65.7002 222.391 65.4683 222.291 65.3212L222.29 65.3225Z" fill="#AEAEAF"/>
<path d="M175.652 94.4487C171.208 96.578 171.424 96.6297 171.492 96.0228C171.839 92.9475 172.423 90.7016 172.078 90.0537C171.828 89.5833 171.214 89.5356 170.945 89.9835C170.558 90.6288 170.062 94.8211 169.832 95.8903C169.669 96.6496 168.438 94.7111 166.782 94.299C166.192 94.1519 165.654 95.0556 166.58 95.7711C169.642 98.1402 169.493 97.2259 166.486 98.7696C165.741 99.1525 165.193 99.7183 165.608 100.448C165.863 100.899 166.528 100.538 166.825 100.417C169.345 99.3857 169.376 99.2784 169.377 99.5897C169.385 102.249 169.202 103.012 169.669 103.036C170.11 103.059 170.139 102.762 170.776 100.224C170.851 99.9303 170.896 99.6295 170.955 99.3327C172.626 100.411 172.892 100.939 173.32 100.635C173.683 100.378 173.367 99.9713 172.655 99.0438C172.072 98.2846 171.766 98.2117 172.157 98.0607C172.5 97.9282 174.688 96.7741 176.306 95.5458C176.626 95.3034 176.667 94.9178 176.428 94.56C176.229 94.2632 176.079 94.242 175.651 94.4474L175.652 94.4487Z" fill="#AEAEAF"/>
<path d="M43.8906 41.983C41.7136 42.9635 41.4844 43.3478 41.5201 42.8814C41.695 40.564 41.7242 40.5653 41.6619 40.5626C41.6619 39.4775 41.8434 38.5447 41.0524 38.4811C40.276 38.4188 40.162 39.1913 40.1011 39.9995C39.8718 43.0033 40.056 43.0642 39.526 42.7939C39.2093 42.6323 39.3167 42.5819 37.5094 41.7975C36.8177 41.4981 36.4056 42.1858 36.8416 42.7462C37.2324 43.2497 37.5637 43.4008 38.898 44.327C39.2213 44.5509 38.9801 44.5032 38.1705 45.0292C36.8853 45.8653 36.4732 46.0627 36.3129 46.757C36.1844 47.3095 36.6269 47.8395 37.5253 47.3692C39.746 46.2058 39.7605 45.9329 39.7857 46.7014C39.8029 47.242 39.7566 47.8568 39.9699 48.4424C40.0547 48.6743 40.4058 48.7882 40.6072 48.4742C40.8139 48.1509 41.1743 46.2283 41.222 45.9647C41.2962 45.5566 41.3717 45.9276 43.3208 46.5424C43.5553 46.6166 43.8919 46.7239 44.0655 46.3834C44.4802 45.5698 42.1018 44.8556 42.8027 44.3641C43.7302 43.7122 43.3871 44.0951 46.0543 41.779C46.261 41.6001 46.4796 40.8223 43.8932 41.9857L43.8906 41.983Z" fill="#AEAEAF"/>
<path d="M65.8284 106.342C65.5078 106.444 65.3739 106.564 62.7981 108.117C62.2999 108.418 62.5252 108.375 62.4444 104.444C62.4179 103.176 62.3702 102.351 61.6878 102.34C60.9034 102.328 61.0332 102.92 60.8358 105.311C60.9153 105.316 60.8928 105.311 60.8928 106.658C60.8928 107.052 60.9471 107.428 60.6238 107.211C58.7238 105.929 58.1368 106.985 58.7264 107.604C59.1623 108.061 59.8103 108.492 60.7457 109.131C61.1074 109.377 60.641 109.409 59.7122 110.173C58.0957 111.502 57.8811 111.663 57.9195 112.215C57.9659 112.872 58.5899 112.772 59.1027 112.444C61.1141 111.161 61.0584 110.878 61.179 111.558C61.4294 112.985 61.5102 113.342 61.9462 113.493C62.5464 113.701 62.6126 112.603 62.5835 112.501C62.3887 111.82 62.5331 111.147 62.4815 110.477C62.4444 110.001 63.5521 111.324 65.4468 111.632C65.7979 111.689 65.9106 111.341 65.3991 110.868C62.8419 108.507 63.1267 109.94 66.1862 106.883C66.4869 106.584 66.1067 106.254 65.8297 106.343L65.8284 106.342Z" fill="#AEAEAF"/>
<path d="M176.567 34.02C163.65 11.1756 132.38 1.8079 107.539 9.00265C86.4984 15.0976 73.7691 36.6859 75.9302 40.0434C76.3131 40.6383 76.3502 40.6317 83.8086 45.3951C88.6091 48.4611 85.1509 40.5867 98.385 29.6528C121.318 10.7053 156.266 21.7518 166.84 43.7388C168.162 46.4882 170.066 44.241 173.042 42.0283C179.087 37.5352 179.051 38.4123 176.568 34.02H176.567Z" fill="#AEAEAF"/>
<path d="M93.3935 49.5083C92.9231 50.3748 93.2291 51.4759 94.0811 52.0138C95.903 53.1653 97.709 54.3352 99.5216 55.4973C102.195 57.2105 101.977 52.3491 109.368 46.3985C114.734 42.0777 120.857 39.9497 127.398 40.0743C137.341 40.2637 144.538 45.895 150.608 53.7748C153.355 57.3403 151.896 57.7604 159.939 51.7608C160.57 51.2904 161.542 50.2397 161.233 49.5175C150.172 23.6257 110.112 18.6702 93.3935 49.5056V49.5083Z" fill="#AEAEAF"/>
<path d="M109.247 59.0153C108.57 60.029 108.557 61.3275 109.601 61.9807C117.697 67.0369 114.928 66.597 119.661 62.8472C124.464 59.0418 130.348 59.5771 134.653 62.6776C139.158 65.9226 138.388 67.7126 140.898 65.8775C146.451 61.8164 147.411 61.5249 146.341 59.9866C136.403 45.711 118.911 44.5543 109.249 59.0153H109.247Z" fill="#AEAEAF"/>
</svg>
