<svg width="39" height="39" viewBox="0 0 39 39" fill="none" xmlns="http://www.w3.org/2000/svg">
<path d="M26.5078 18.2812H20.7188V12.4922C20.7188 12.3246 20.5816 12.1875 20.4141 12.1875H18.5859C18.4184 12.1875 18.2812 12.3246 18.2812 12.4922V18.2812H12.4922C12.3246 18.2812 12.1875 18.4184 12.1875 18.5859V20.4141C12.1875 20.5816 12.3246 20.7188 12.4922 20.7188H18.2812V26.5078C18.2812 26.6754 18.4184 26.8125 18.5859 26.8125H20.4141C20.5816 26.8125 20.7188 26.6754 20.7188 26.5078V20.7188H26.5078C26.6754 20.7188 26.8125 20.5816 26.8125 20.4141V18.5859C26.8125 18.4184 26.6754 18.2812 26.5078 18.2812Z" fill="#7C8698"/>
<path d="M19.5 2.4375C10.0775 2.4375 2.4375 10.0775 2.4375 19.5C2.4375 28.9225 10.0775 36.5625 19.5 36.5625C28.9225 36.5625 36.5625 28.9225 36.5625 19.5C36.5625 10.0775 28.9225 2.4375 19.5 2.4375ZM19.5 33.668C11.6771 33.668 5.33203 27.3229 5.33203 19.5C5.33203 11.6771 11.6771 5.33203 19.5 5.33203C27.3229 5.33203 33.668 11.6771 33.668 19.5C33.668 27.3229 27.3229 33.668 19.5 33.668Z" fill="#7C8698"/>
</svg>
