<svg width="70" height="70" viewBox="0 0 70 70" fill="none" xmlns="http://www.w3.org/2000/svg">
<path fill-rule="evenodd" clip-rule="evenodd" d="M1 1H5.25V64.75H69V69H6C3.23858 69 1 66.7614 1 64V1ZM63.9723 14.2302C64.1884 14.4071 64.3675 14.6248 64.4994 14.8709C64.6314 15.117 64.7135 15.3867 64.7411 15.6646C64.7687 15.9425 64.7413 16.2231 64.6605 16.4903C64.5796 16.7576 64.4468 17.0063 64.2697 17.2222L45.1447 40.5973C44.9568 40.8267 44.7228 41.0142 44.458 41.1478C44.1932 41.2814 43.9033 41.3581 43.6071 41.3729C43.3109 41.3877 43.0148 41.3403 42.738 41.2338C42.4611 41.1273 42.2097 40.964 41.9997 40.7545L31.005 29.7598L15.467 51.1245C15.1271 51.5567 14.6329 51.8403 14.0882 51.9158C13.5436 51.9912 12.9909 51.8526 12.5463 51.5291C12.1017 51.2056 11.7998 50.7223 11.7041 50.1808C11.6084 49.6393 11.7263 49.0819 12.033 48.6255L29.033 25.2505C29.2134 25.0019 29.4456 24.7954 29.7136 24.6452C29.9815 24.4951 30.2788 24.4047 30.585 24.3805C30.8912 24.3562 31.199 24.3987 31.4872 24.5049C31.7754 24.611 32.0372 24.7784 32.2545 24.9955L43.3428 36.088L60.9802 14.5278C61.1571 14.3116 61.3748 14.1325 61.6209 14.0006C61.867 13.8686 62.1367 13.7865 62.4146 13.7589C62.6925 13.7313 62.9731 13.7587 63.2403 13.8395C63.5076 13.9204 63.7563 14.0532 63.9723 14.2302Z" fill="#AEAEAF" stroke="#AEAEAF" stroke-width="2"/>
</svg>