<svg width="8" height="14" viewBox="0 0 8 14" fill="none" xmlns="http://www.w3.org/2000/svg">
<path d="M5.31171 6.99704L0.217436 12.2346C0.0771651 12.3785 0 12.5709 0 12.776C0 12.9812 0.0771651 13.1734 0.217436 13.3175L0.663824 13.7762C0.803874 13.9206 0.991087 14 1.19059 14C1.39009 14 1.57708 13.9206 1.71724 13.7762L7.78278 7.54042C7.9235 7.39587 8.00055 7.20272 8 6.99738C8.00055 6.79114 7.92361 6.59821 7.78278 6.45354L1.72289 0.223772C1.58273 0.0794468 1.39574 0 1.19612 0C0.996623 0 0.809631 0.0794468 0.66936 0.223772L0.223083 0.682471C-0.0673122 0.981024 -0.0673122 1.46704 0.223083 1.76548L5.31171 6.99704Z" fill="#EDE8C8"/>
</svg>
