<svg width="16" height="16" viewBox="0 0 16 16" fill="none" xmlns="http://www.w3.org/2000/svg">
<g clip-path="url(#clip0_1558_62)">
<path d="M12 2.66634H11.3333V1.99967C11.3333 1.82286 11.2631 1.65329 11.1381 1.52827C11.013 1.40325 10.8435 1.33301 10.6667 1.33301C10.4899 1.33301 10.3203 1.40325 10.1953 1.52827C10.0702 1.65329 10 1.82286 10 1.99967V2.66634H6V1.99967C6 1.82286 5.92976 1.65329 5.80474 1.52827C5.67971 1.40325 5.51014 1.33301 5.33333 1.33301C5.15652 1.33301 4.98695 1.40325 4.86193 1.52827C4.7369 1.65329 4.66667 1.82286 4.66667 1.99967V2.66634H4C3.46957 2.66634 2.96086 2.87705 2.58579 3.25213C2.21071 3.6272 2 4.13591 2 4.66634V12.6663C2 13.1968 2.21071 13.7055 2.58579 14.0806C2.96086 14.4556 3.46957 14.6663 4 14.6663H12C12.5304 14.6663 13.0391 14.4556 13.4142 14.0806C13.7893 13.7055 14 13.1968 14 12.6663V4.66634C14 4.13591 13.7893 3.6272 13.4142 3.25213C13.0391 2.87705 12.5304 2.66634 12 2.66634ZM5.33333 11.333C5.20148 11.333 5.07259 11.2939 4.96295 11.2207C4.85332 11.1474 4.76787 11.0433 4.71741 10.9215C4.66696 10.7996 4.65375 10.6656 4.67948 10.5363C4.7052 10.407 4.76869 10.2882 4.86193 10.1949C4.95516 10.1017 5.07395 10.0382 5.20327 10.0125C5.33259 9.98676 5.46664 9.99996 5.58846 10.0504C5.71027 10.1009 5.81439 10.1863 5.88765 10.296C5.9609 10.4056 6 10.5345 6 10.6663C6 10.8432 5.92976 11.0127 5.80474 11.1377C5.67971 11.2628 5.51014 11.333 5.33333 11.333ZM10.6667 11.333H8C7.82319 11.333 7.65362 11.2628 7.5286 11.1377C7.40357 11.0127 7.33333 10.8432 7.33333 10.6663C7.33333 10.4895 7.40357 10.32 7.5286 10.1949C7.65362 10.0699 7.82319 9.99967 8 9.99967H10.6667C10.8435 9.99967 11.013 10.0699 11.1381 10.1949C11.2631 10.32 11.3333 10.4895 11.3333 10.6663C11.3333 10.8432 11.2631 11.0127 11.1381 11.1377C11.013 11.2628 10.8435 11.333 10.6667 11.333ZM12.6667 7.33301H3.33333V4.66634C3.33333 4.48953 3.40357 4.31996 3.5286 4.19494C3.65362 4.06991 3.82319 3.99967 4 3.99967H4.66667V4.66634C4.66667 4.84315 4.7369 5.01272 4.86193 5.13775C4.98695 5.26277 5.15652 5.33301 5.33333 5.33301C5.51014 5.33301 5.67971 5.26277 5.80474 5.13775C5.92976 5.01272 6 4.84315 6 4.66634V3.99967H10V4.66634C10 4.84315 10.0702 5.01272 10.1953 5.13775C10.3203 5.26277 10.4899 5.33301 10.6667 5.33301C10.8435 5.33301 11.013 5.26277 11.1381 5.13775C11.2631 5.01272 11.3333 4.84315 11.3333 4.66634V3.99967H12C12.1768 3.99967 12.3464 4.06991 12.4714 4.19494C12.5964 4.31996 12.6667 4.48953 12.6667 4.66634V7.33301Z" fill="#AEAEAF"/>
</g>
<defs>
<clipPath id="clip0_1558_62">
<rect width="16" height="16" fill="white"/>
</clipPath>
</defs>
</svg>
