<svg width="23" height="23" viewBox="0 0 23 23" fill="none" xmlns="http://www.w3.org/2000/svg">
<path d="M6.96817 12.1401C6.14507 12.1401 5.42074 11.6899 5.0476 11.0093L1.11868 3.88407C0.712618 3.15948 1.2394 2.25922 2.07347 2.25922H18.316L19.3476 0.0634766H22.9363V2.25922H20.7413L16.7905 10.5921L18.2721 13.2709C19.0732 14.742 18.0196 16.5316 16.3515 16.5316H3.18191V14.3358H16.3515L15.1443 12.1401H6.96817ZM17.2734 4.45497H3.93917L6.96817 9.94433H14.6724L17.2734 4.45497ZM16.3515 17.6294C17.5587 17.6294 18.5354 18.6175 18.5354 19.8252C18.5354 21.0328 17.5587 22.0209 16.3515 22.0209C15.1443 22.0209 14.1566 21.0328 14.1566 19.8252C14.1566 18.6175 15.1443 17.6294 16.3515 17.6294ZM5.37684 17.6294C6.58405 17.6294 7.5608 18.6175 7.5608 19.8252C7.5608 21.0328 6.58405 22.0209 5.37684 22.0209C4.16963 22.0209 3.18191 21.0328 3.18191 19.8252C3.18191 18.6175 4.16963 17.6294 5.37684 17.6294Z" fill="#AEAEAF"/>
</svg>
