<svg width="15" height="15" viewBox="0 0 15 15" fill="none" xmlns="http://www.w3.org/2000/svg">
<path d="M12.0007 13.5H13.5V15H7.5C3.35786 15 0 11.6421 0 7.5C0 3.35786 3.35786 0 7.5 0C11.6421 0 15 3.35786 15 7.5C15 9.9534 13.822 12.1316 12.0007 13.5ZM7.5 6C8.32845 6 9 5.32843 9 4.5C9 3.67157 8.32845 3 7.5 3C6.67155 3 6 3.67157 6 4.5C6 5.32843 6.67155 6 7.5 6ZM4.5 9C5.32843 9 6 8.32845 6 7.5C6 6.67155 5.32843 6 4.5 6C3.67157 6 3 6.67155 3 7.5C3 8.32845 3.67157 9 4.5 9ZM10.5 9C11.3285 9 12 8.32845 12 7.5C12 6.67155 11.3285 6 10.5 6C9.67155 6 9 6.67155 9 7.5C9 8.32845 9.67155 9 10.5 9ZM7.5 12C8.32845 12 9 11.3285 9 10.5C9 9.67155 8.32845 9 7.5 9C6.67155 9 6 9.67155 6 10.5C6 11.3285 6.67155 12 7.5 12Z" fill="#111111"/>
</svg>
