<svg width="10" height="10" viewBox="0 0 10 10" fill="none" xmlns="http://www.w3.org/2000/svg">
<path opacity="0.6" d="M5 0C2.2375 0 0 2.2375 0 5C0 7.7625 2.2375 10 5 10C7.7625 10 10 7.7625 10 5C10 2.2375 7.7625 0 5 0ZM6.94375 6.94375C6.82798 7.05787 6.67194 7.12185 6.50938 7.12185C6.34681 7.12185 6.19077 7.05787 6.075 6.94375L4.7375 5.60625C4.50625 5.375 4.375 5.05625 4.375 4.725V3.125C4.375 2.76875 4.675 2.475 5.04375 2.5C5.375 2.525 5.625 2.8125 5.625 3.14375V4.75625L6.94375 6.075C7.05787 6.19077 7.12185 6.34681 7.12185 6.50938C7.12185 6.67194 7.05787 6.82798 6.94375 6.94375Z" fill="url(#paint0_linear_1477_346)"/>
<defs>
<linearGradient id="paint0_linear_1477_346" x1="-2.78652e-07" y1="8.5" x2="20" y2="-4.5" gradientUnits="userSpaceOnUse">
<stop stop-color="white"/>
<stop offset="1" stop-color="white" stop-opacity="0.4"/>
</linearGradient>
</defs>
</svg>
