<svg width="29" height="32" viewBox="0 0 29 32" fill="none" xmlns="http://www.w3.org/2000/svg">
<path fill-rule="evenodd" clip-rule="evenodd" d="M22.6513 5.19743C22.6519 5.19765 22.6525 5.19799 22.6537 5.19928L24.2874 7.00209C24.2886 7.00337 24.2889 7.00396 24.2891 7.00471C24.2893 7.00542 24.2893 7.00617 24.2891 7.00687C24.2889 7.00759 24.2886 7.00818 24.2874 7.00946L16.1396 16.0002L24.2874 24.9909C24.2886 24.9921 24.2889 24.9928 24.2891 24.9935C24.2893 24.9942 24.2893 24.995 24.2891 24.9957C24.2889 24.9964 24.2886 24.997 24.2874 24.9983L22.6537 26.8011C22.6525 26.8024 22.6519 26.8027 22.6513 26.8029C22.6506 26.8031 22.65 26.8031 22.6493 26.8029C22.6487 26.8027 22.6481 26.8024 22.647 26.8011L14.4991 17.8104L6.35129 26.8011C6.35016 26.8024 6.34959 26.8027 6.34894 26.8029C6.34829 26.8032 6.3476 26.8032 6.34696 26.8029C6.34633 26.8027 6.34577 26.8024 6.3446 26.8011L4.71081 24.9983C4.70964 24.997 4.70933 24.9964 4.70913 24.9956C4.70894 24.9949 4.70894 24.9942 4.70913 24.9935C4.70933 24.9928 4.70964 24.9922 4.71081 24.9909L12.8586 16.0002L4.71081 7.00946C4.70964 7.00821 4.70933 7.00759 4.70913 7.00687C4.70893 7.00616 4.70893 7.00539 4.70913 7.00468C4.70933 7.00399 4.70964 7.00337 4.71081 7.00209L6.3446 5.19928C6.34577 5.19799 6.3463 5.19765 6.34698 5.19743C6.34762 5.19722 6.3483 5.19722 6.34894 5.19743C6.34959 5.19765 6.35013 5.19799 6.35129 5.19928L14.4991 14.19L22.647 5.19928C22.6481 5.19799 22.6487 5.19765 22.6493 5.19743C22.65 5.19721 22.6507 5.19721 22.6513 5.19743H22.6513Z" fill="#7C8698" stroke="#7C8698"/>
</svg>
