<svg width="15" height="15" viewBox="0 0 15 15" fill="none" xmlns="http://www.w3.org/2000/svg">
<path fill-rule="evenodd" clip-rule="evenodd" d="M12.9125 1.0001C12.9129 1.00023 12.9133 1.00044 12.9141 1.00121L13.9988 2.08594C13.9996 2.08671 13.9998 2.08707 13.9999 2.08752C14 2.08794 14 2.0884 13.9999 2.08882C13.9998 2.08925 13.9996 2.08961 13.9988 2.09038L8.58917 7.5L13.9988 12.9096C13.9996 12.9104 13.9998 12.9107 13.9999 12.9112C14 12.9116 14 12.9121 13.9999 12.9125C13.9998 12.9129 13.9996 12.9133 13.9988 12.9141L12.9141 13.9988C12.9133 13.9996 12.9129 13.9998 12.9125 13.9999C12.9121 14 12.9116 14 12.9112 13.9999C12.9107 13.9998 12.9104 13.9996 12.9096 13.9988L7.5 8.58917L2.09038 13.9988C2.08963 13.9996 2.08925 13.9998 2.08882 13.9999C2.08839 14 2.08793 14 2.0875 13.9999C2.08709 13.9998 2.08671 13.9996 2.08594 13.9988L1.00121 12.9141C1.00044 12.9133 1.00023 12.9129 1.0001 12.9125C0.999971 12.9121 0.999971 12.9116 1.0001 12.9112C1.00023 12.9107 1.00044 12.9104 1.00121 12.9096L6.41081 7.5L1.00121 2.09038C1.00044 2.08963 1.00023 2.08925 1.0001 2.08882C0.999967 2.08839 0.999967 2.08793 1.0001 2.0875C1.00023 2.08709 1.00044 2.08671 1.00121 2.08594L2.08594 1.00121C2.08671 1.00044 2.08707 1.00023 2.08752 1.0001C2.08794 0.999971 2.0884 0.999971 2.08882 1.0001C2.08925 1.00023 2.08961 1.00044 2.09038 1.00121L7.5 6.41081L12.9096 1.00121C12.9104 1.00044 12.9107 1.00023 12.9112 1.0001C12.9116 0.999967 12.9121 0.999967 12.9125 1.0001H12.9125Z" fill="#111111" stroke="#111111"/>
</svg>
