<svg width="75" height="64" viewBox="0 0 75 64" fill="none" xmlns="http://www.w3.org/2000/svg">
<path d="M26.6145 31.5C23.57 31.5 21.3837 31.754 19.9534 32.3127C18.5251 32.846 17.8753 33.481 17.3216 34.7C16.8047 35.8175 16.492 37.6968 16.3 40.3635C18.4945 40.4651 20.3211 40.7191 21.8945 41.3286C23.9378 42.0905 25.6132 43.5889 26.6145 45.7222C27.6157 43.5889 29.2707 42.0905 31.3344 41.3286C32.9078 40.7191 34.7467 40.4397 36.9535 40.3635C36.7491 37.6968 36.4426 35.8175 35.9318 34.7C35.3801 33.5064 34.7263 32.846 33.2756 32.3127C31.8453 31.754 29.6589 31.5 26.6145 31.5ZM51.5221 31.5C48.4776 31.5 46.2913 31.754 44.861 32.3127C43.4307 32.846 42.7768 33.481 42.2251 34.7C41.7143 35.8175 41.4078 37.6968 41.2035 40.3635C43.4102 40.4651 45.2288 40.7191 46.8021 41.3286C48.8454 42.0905 50.5209 43.5889 51.5221 45.7222C52.5233 43.5889 54.1784 42.0905 56.2421 41.3286C57.8154 40.7191 59.6544 40.4397 61.8611 40.3635C61.6568 37.6968 61.3503 35.8175 60.8395 34.7C60.2878 33.5064 59.6339 32.846 58.1832 32.3127C56.7529 31.754 54.5666 31.5 51.5221 31.5ZM14.1504 44.8841C11.1182 44.8841 8.9278 45.1381 7.4975 45.6968C6.06516 46.2302 5.41744 46.8651 4.86371 48.0841C3.85637 50.2682 3.60709 55.3222 3.57031 63.5H24.7551C24.7142 55.3222 24.469 50.2682 23.4678 48.0841C22.9161 46.8905 22.2623 46.2302 20.8115 45.6968C19.3853 45.1381 17.1908 44.8841 14.1504 44.8841ZM39.0581 44.8841C36.0136 44.8841 33.8272 45.1381 32.3969 45.6968C30.9666 46.2302 30.3128 46.8651 29.7611 48.0841C28.7599 50.2682 28.5147 55.3222 28.4738 63.5H49.6627C49.6218 55.3222 49.3766 50.2682 48.3754 48.0841C47.8237 46.8905 47.1699 46.2302 45.7192 45.6968C44.2889 45.1381 42.1025 44.8841 39.0581 44.8841ZM63.9657 44.8841C60.9212 44.8841 58.7349 45.1381 57.3046 45.6968C55.8743 46.2302 55.2204 46.8651 54.6687 48.0841C53.6675 50.2682 53.4223 55.3222 53.3815 63.5H74.5703C74.5294 55.3222 74.2842 50.2682 73.283 48.0841C72.7314 46.8905 72.0775 46.2302 70.6268 45.6968C69.1965 45.1381 67.0102 44.8841 63.9657 44.8841Z" fill="#AEAEAF"/>
<path d="M67.0707 7.5H7.49785V34.7L0 34.7005V0.000488281L74.5707 0V34.7H67.0707V7.5Z" fill="#AEAEAF"/>
</svg>