<svg width="26" height="25" viewBox="0 0 26 25" fill="none" xmlns="http://www.w3.org/2000/svg">
<path d="M9.10695 12.2964H11.6757V0.284063C11.6757 0.127829 11.8008 0 11.9537 0H14.0393C14.1922 0 14.3174 0.127829 14.3174 0.284063V12.2964H16.893C17.1259 12.2964 17.2545 12.5698 17.112 12.7544L13.219 17.7894C13.193 17.8234 13.1597 17.8508 13.1218 17.8697C13.0839 17.8886 13.0422 17.8984 13 17.8984C12.9578 17.8984 12.9161 17.8886 12.8782 17.8697C12.8403 17.8508 12.807 17.8234 12.781 17.7894L8.88797 12.758C8.74545 12.5698 8.87406 12.2964 9.10695 12.2964ZM25.7219 16.5491H23.6364C23.4834 16.5491 23.3583 16.677 23.3583 16.8332V22.3014H2.64171V16.8332C2.64171 16.677 2.51658 16.5491 2.36364 16.5491H0.278075C0.125134 16.5491 0 16.677 0 16.8332V23.8637C0 24.4922 0.497059 25 1.1123 25H24.8877C25.5029 25 26 24.4922 26 23.8637V16.8332C26 16.677 25.8749 16.5491 25.7219 16.5491Z" fill="#EDE8C8"/>
</svg>
