<svg width="22" height="21" viewBox="0 0 22 21" fill="none" xmlns="http://www.w3.org/2000/svg">
<path fill-rule="evenodd" clip-rule="evenodd" d="M10.1557 0.0375287C10.5826 0.0375287 10.929 0.383948 10.929 0.810785C10.929 1.23762 10.5826 1.58404 10.1557 1.58404H6.30078C3.63665 1.58404 1.9159 3.40893 1.9159 6.23286V14.8047C1.9159 17.6286 3.63665 19.4535 6.30078 19.4535H15.3984C18.0625 19.4535 19.7843 17.6286 19.7843 14.8047V10.6518C19.7843 10.2249 20.1307 9.87851 20.5576 9.87851C20.9844 9.87851 21.3308 10.2249 21.3308 10.6518V14.8047C21.3308 18.5101 18.9461 21 15.3984 21H6.30078C2.75308 21 0.369385 18.5101 0.369385 14.8047V6.23286C0.369385 2.52742 2.75308 0.0375287 6.30078 0.0375287H10.1557ZM19.1354 0.943373L20.3901 2.19811C21.0015 2.80847 21.3376 3.61987 21.3366 4.48386C21.3366 5.34784 21.0005 6.15822 20.3901 6.76754L12.6483 14.5094C12.0802 15.0775 11.3234 15.3909 10.5193 15.3909H6.65709C6.44883 15.3909 6.24882 15.3064 6.10344 15.1569C5.95807 15.0084 5.87868 14.8073 5.88384 14.5981L5.98075 10.7019C6.00034 9.92655 6.31274 9.19763 6.86123 8.6481H6.86227L14.567 0.943373C15.8269 -0.314458 17.8755 -0.314458 19.1354 0.943373ZM13.9323 3.76421L7.95514 9.742C7.6881 10.009 7.53655 10.3637 7.52727 10.74L7.44994 13.8444H10.5193C10.911 13.8444 11.2781 13.6928 11.5554 13.4155L17.5687 7.40058L13.9323 3.76421ZM15.6599 2.03727L15.0252 2.67031L18.6615 6.30771L19.2973 5.67364C19.6148 5.35609 19.7901 4.93338 19.7901 4.48386C19.7901 4.03331 19.6148 3.60956 19.2973 3.29201L18.0425 2.03727C17.3858 1.38258 16.3176 1.38258 15.6599 2.03727Z" fill="#7C8698"/>
</svg>
