<svg width="74" height="74" viewBox="0 0 74 74" fill="none" xmlns="http://www.w3.org/2000/svg">
<path d="M71.0311 0C70.6797 0 70.319 0.0647422 69.9583 0.212724L16.6479 21.633H1.47982C0.665917 21.633 0 22.3175 0 23.1684V50.8224C0 51.6733 0.665917 52.3577 1.47982 52.3577H10.8766C10.5344 53.4306 10.3587 54.5682 10.3587 55.7243C10.3587 61.8193 15.3346 66.7767 21.4573 66.7767C26.5812 66.7767 30.9004 63.2991 32.1767 58.6007L69.9675 73.7873C70.3282 73.926 70.6889 74 71.0404 74C72.6034 74 74 72.6867 74 70.9294V3.07062C73.9908 1.31334 72.6034 0 71.0311 0ZM21.4573 60.1452C19.0064 60.1452 17.0179 58.166 17.0179 55.7243C17.0179 54.6884 17.3786 53.6988 18.0352 52.9126L25.8875 56.0665C25.7025 58.3417 23.788 60.1452 21.4573 60.1452Z" fill="#AEAEAF"/>
</svg>