<svg width="69" height="62" viewBox="0 0 69 62" fill="none" xmlns="http://www.w3.org/2000/svg">
<path d="M0 7.75C0 3.47539 3.43772 0 7.666 0H26.831V15.5C26.831 17.6434 28.5439 19.375 30.664 19.375H45.996V34.875H25.8728C24.2797 34.875 22.998 36.1707 22.998 37.7812C22.998 39.3918 24.2797 40.6875 25.8728 40.6875H45.996V54.25C45.996 58.5246 42.5583 62 38.33 62H7.666C3.43772 62 0 58.5246 0 54.25V7.75ZM45.996 40.6875V34.875H59.1839L54.5125 30.1523C53.3865 29.0141 53.3865 27.1734 54.5125 26.0473C55.6384 24.9211 57.4591 24.909 58.573 26.0473L68.1555 35.7348C69.2815 36.873 69.2815 38.7137 68.1555 39.8398L58.573 49.5273C57.4471 50.6656 55.6264 50.6656 54.5125 49.5273C53.3985 48.3891 53.3865 46.5484 54.5125 45.4223L59.1839 40.6996H45.996V40.6875ZM45.996 15.5H30.664V0L45.996 15.5Z" fill="white"/>
</svg>
