<svg width="16" height="16" viewBox="0 0 16 16" fill="none" xmlns="http://www.w3.org/2000/svg">
<g clip-path="url(#clip0_1558_70)">
<path d="M12.1733 2H3.82667C3.3422 2 2.87758 2.19245 2.53502 2.53502C2.19245 2.87758 2 3.3422 2 3.82667V12.1733C2 12.6578 2.19245 13.1224 2.53502 13.465C2.87758 13.8075 3.3422 14 3.82667 14H12.1733C12.6578 14 13.1224 13.8075 13.465 13.465C13.8075 13.1224 14 12.6578 14 12.1733V3.82667C14 3.3422 13.8075 2.87758 13.465 2.53502C13.1224 2.19245 12.6578 2 12.1733 2ZM4.66667 7.33333H3.33333V6H4.66667V7.33333ZM3.33333 8.66667H4.66667V10H3.33333V8.66667ZM12.6667 7.33333H11.3333V6H12.6667V7.33333ZM11.3333 8.66667H12.6667V10H11.3333V8.66667ZM12.6667 3.82667V4.66667H11.3333V3.33333H12.1733C12.2381 3.33333 12.3023 3.34609 12.3621 3.37089C12.422 3.39568 12.4764 3.43202 12.5222 3.47783C12.568 3.52364 12.6043 3.57802 12.6291 3.63788C12.6539 3.69773 12.6667 3.76188 12.6667 3.82667ZM3.82667 3.33333H4.66667V4.66667H3.33333V3.82667C3.33333 3.76188 3.34609 3.69773 3.37089 3.63788C3.39568 3.57802 3.43202 3.52364 3.47783 3.47783C3.52364 3.43202 3.57802 3.39568 3.63788 3.37089C3.69773 3.34609 3.76188 3.33333 3.82667 3.33333ZM3.33333 12.1733V11.3333H4.66667V12.6667H3.82667C3.76188 12.6667 3.69773 12.6539 3.63788 12.6291C3.57802 12.6043 3.52364 12.568 3.47783 12.5222C3.43202 12.4764 3.39568 12.422 3.37089 12.3621C3.34609 12.3023 3.33333 12.2381 3.33333 12.1733ZM12.6667 12.1733C12.6667 12.3042 12.6147 12.4297 12.5222 12.5222C12.4297 12.6147 12.3042 12.6667 12.1733 12.6667H11.3333V11.3333H12.6667V12.1733Z" fill="#AEAEAF"/>
</g>
<defs>
<clipPath id="clip0_1558_70">
<rect width="16" height="16" fill="white"/>
</clipPath>
</defs>
</svg>
