<svg width="20" height="20" viewBox="0 0 20 20" fill="none" xmlns="http://www.w3.org/2000/svg">
<path d="M5.06125 19.9826L5.42946 19.8797C5.78363 19.7807 5.99049 19.4134 5.89153 19.0592L1.68177 3.99408C1.62237 3.78147 1.48094 3.60117 1.2886 3.49285C1.09625 3.38452 0.868757 3.35704 0.656154 3.41646L0.608602 3.42973C0.165852 3.55344 -0.0927868 4.01264 0.0309124 4.45539L4.24077 19.5205C4.33974 19.8747 4.70708 20.0816 5.06125 19.9826Z" fill="#7C8698"/>
<path d="M19.8861 9.455C18.5511 8.78933 17.3161 7.93967 16.2172 6.93086C16.1248 6.8463 16.0887 6.7165 16.1241 6.59638C16.6686 4.53644 17.0729 2.442 17.3344 0.327417C17.3758 -0.0243074 17.1861 -0.127756 16.9861 0.113624C13.062 4.80672 6.27234 -0.744997 2.23096 3.52052C2.27948 3.61136 2.31765 3.70736 2.34475 3.80672L5.07579 13.586C9.12406 9.37224 15.8896 14.8895 19.8068 10.2067C20.0068 9.96534 20.0448 9.52396 19.8861 9.455Z" fill="#7C8698"/>
</svg>
