<svg width="21" height="22" viewBox="0 0 21 22" fill="none" xmlns="http://www.w3.org/2000/svg">
<path d="M1.25951 21.1498C1.25951 21.62 1.63489 22 2.09951 22H9.60701V12.0097H1.25951V21.1498ZM11.392 22H18.8995C19.3641 22 19.7395 21.62 19.7395 21.1498V12.0097H11.392V22ZM20.1595 5.63285H16.285C16.642 5.06425 16.852 4.38937 16.852 3.66667C16.852 1.64469 15.2271 0 13.2295 0C12.1428 0 11.1636 0.488889 10.4995 1.25942C9.83539 0.488889 8.85626 0 7.76951 0C5.77189 0 4.14701 1.64469 4.14701 3.66667C4.14701 4.38937 4.35439 5.06425 4.71401 5.63285H0.839512C0.374887 5.63285 -0.000488281 6.0128 -0.000488281 6.48309V10.2029H9.60701V5.63285H11.392V10.2029H20.9995V6.48309C20.9995 6.0128 20.6241 5.63285 20.1595 5.63285ZM9.60701 5.52657H7.76951C6.75626 5.52657 5.93201 4.69227 5.93201 3.66667C5.93201 2.64106 6.75626 1.80676 7.76951 1.80676C8.78276 1.80676 9.60701 2.64106 9.60701 3.66667V5.52657ZM13.2295 5.52657H11.392V3.66667C11.392 2.64106 12.2163 1.80676 13.2295 1.80676C14.2428 1.80676 15.067 2.64106 15.067 3.66667C15.067 4.69227 14.2428 5.52657 13.2295 5.52657Z" fill="#AEAEAF"/>
</svg>
