<svg width="50" height="52" viewBox="0 0 50 52" fill="none" xmlns="http://www.w3.org/2000/svg">
<path d="M49.541 20.8793H25.5088V30.757H39.2377C38.6457 33.9497 36.8498 36.6503 34.1426 38.4595C31.8545 39.9894 28.9344 40.894 25.5022 40.894C18.8573 40.894 13.2367 36.4041 11.2279 30.3712C10.7224 28.8413 10.4297 27.205 10.4297 25.5221C10.4297 23.8393 10.7224 22.203 11.2279 20.6731C13.2433 14.6468 18.8639 10.157 25.5088 10.157C29.2537 10.157 32.6127 11.4474 35.2601 13.975L42.5768 6.65159C38.1535 2.5276 32.3866 0 25.5088 0C15.5381 0 6.911 5.72037 2.71385 14.0615C0.984435 17.507 0 21.4048 0 25.5288C0 29.6528 0.984435 33.544 2.71385 36.9895C6.911 45.3306 15.5381 51.0509 25.5088 51.0509C32.3999 51.0509 38.1735 48.7628 42.3906 44.865C47.213 40.4217 50 33.8765 50 26.1008C50 24.2916 49.8404 22.5555 49.541 20.8793Z" fill="#EDE8C8"/>
</svg>