<svg width="27" height="26" viewBox="0 0 27 26" fill="none" xmlns="http://www.w3.org/2000/svg">
<path d="M25.7868 10.4397H13.3201V15.3785H20.442C20.1349 16.9749 19.2032 18.3251 17.7989 19.2297C16.6119 19.9947 15.0971 20.447 13.3167 20.447C9.8696 20.447 6.95392 18.2021 5.91187 15.1856C5.64963 14.4206 5.49781 13.6025 5.49781 12.7611C5.49781 11.9196 5.64963 11.1015 5.91187 10.3366C6.95737 7.3234 9.87305 5.07849 13.3201 5.07849C15.2628 5.07849 17.0053 5.72369 18.3786 6.98749L22.1741 3.32579C19.8795 1.2638 16.8879 0 13.3201 0C8.1478 0 3.67248 2.86018 1.49521 7.03073C0.598078 8.75349 0.0874023 10.7024 0.0874023 12.7644C0.0874023 14.8264 0.598078 16.772 1.49521 18.4947C3.67248 22.6653 8.1478 25.5255 13.3201 25.5255C16.8948 25.5255 19.8899 24.3814 22.0775 22.4325C24.5791 20.2109 26.0249 16.9383 26.0249 13.0504C26.0249 12.1458 25.9421 11.2778 25.7868 10.4397Z" fill="#EDE8C8"/>
</svg>
