<svg width="79" height="69" viewBox="0 0 79 69" fill="none" xmlns="http://www.w3.org/2000/svg">
<path d="M26.1353 37.9808C24.2065 36.0556 24.2065 32.929 26.1353 31.0038L45.8863 11.2895C47.8151 9.36429 50.9475 9.36429 52.8763 11.2895C54.8051 13.2147 54.8051 16.3413 52.8763 18.2665L41.5503 29.5714H74.0623C76.7934 29.5714 79 31.7739 79 34.5C79 37.2261 76.7934 39.4286 74.0623 39.4286H41.5503L52.8763 50.7335C54.8051 52.6587 54.8051 55.7853 52.8763 57.7105C50.9475 59.6357 47.8151 59.6357 45.8863 57.7105L26.1353 37.9962V37.9808ZM24.6887 9.85714C27.4199 9.85714 29.6264 7.65469 29.6264 4.92857C29.6264 2.20246 27.4199 0 24.6887 0H14.8132C6.63509 0 0 6.62277 0 14.7857V54.2143C0 62.3772 6.63509 69 14.8132 69H24.6887C27.4199 69 29.6264 66.7975 29.6264 64.0714C29.6264 61.3453 27.4199 59.1429 24.6887 59.1429H14.8132C12.082 59.1429 9.87548 56.9404 9.87548 54.2143V14.7857C9.87548 12.0596 12.082 9.85714 14.8132 9.85714H24.6887Z" fill="#AEAEAF"/>
</svg>