<svg width="65" height="66" viewBox="0 0 65 66" fill="none" xmlns="http://www.w3.org/2000/svg">
<path d="M8.125 65.168C5.89062 65.168 3.97854 64.4412 2.38875 62.9877C0.796249 61.5317 0 59.7823 0 57.7394V24.3108C0 23.1346 0.288437 22.0204 0.865312 20.968C1.43948 19.9156 2.23438 19.0489 3.25 18.368L27.625 1.65368C28.3698 1.15845 29.1484 0.787016 29.9609 0.539397C30.7734 0.291778 31.6198 0.167969 32.5 0.167969C33.3802 0.167969 34.2266 0.291778 35.0391 0.539397C35.8516 0.787016 36.6302 1.15845 37.375 1.65368L61.75 18.368C62.7656 19.0489 63.5619 19.9156 64.1387 20.968C64.7129 22.0204 65 23.1346 65 24.3108V57.7394C65 59.7823 64.2051 61.5317 62.6153 62.9877C61.0228 64.4412 59.1094 65.168 56.875 65.168H40.625V39.168H24.375V65.168H8.125Z" fill="#AEAEAF"/>
</svg>