<svg width="28" height="29" viewBox="0 0 28 29" fill="none" xmlns="http://www.w3.org/2000/svg">
<path d="M6.37476 23C5.72163 23 5.16271 22.7764 4.69801 22.3291C4.23251 21.8811 3.99976 21.3429 3.99976 20.7143V10.4286C3.99976 10.0667 4.08407 9.72381 4.25269 9.4C4.42053 9.07619 4.65288 8.80952 4.94976 8.6L12.0748 3.45714C12.2925 3.30476 12.5201 3.19048 12.7576 3.11429C12.9951 3.0381 13.2425 3 13.4998 3C13.757 3 14.0044 3.0381 14.2419 3.11429C14.4794 3.19048 14.707 3.30476 14.9248 3.45714L22.0498 8.6C22.3466 8.80952 22.5794 9.07619 22.748 9.4C22.9158 9.72381 22.9998 10.0667 22.9998 10.4286V20.7143C22.9998 21.3429 22.7674 21.8811 22.3027 22.3291C21.8372 22.7764 21.2779 23 20.6248 23H15.8748V15H11.1248V23H6.37476Z" fill="#D82111"/>
</svg>
