<svg width="19" height="19" viewBox="0 0 19 19" fill="none" xmlns="http://www.w3.org/2000/svg">
<path d="M9.5 0C4.2617 0 0 4.2617 0 9.5C0 14.7383 4.2617 19 9.5 19C14.7383 19 19 14.7383 19 9.5C19 4.2617 14.7383 0 9.5 0ZM17.0344 8.55H14.4086C14.2915 6.47068 13.7097 4.44407 12.7063 2.61915C13.8692 3.1626 14.8759 3.99133 15.6327 5.02826C16.3894 6.0652 16.8716 7.27667 17.0344 8.55ZM10.0035 1.92565C10.9867 3.22145 12.3091 5.51665 12.4991 8.55H6.6785C6.81055 6.0838 7.6228 3.7734 9.00695 1.9247C9.17035 1.9152 9.33375 1.9 9.5 1.9C9.67005 1.9 9.8363 1.9152 10.0035 1.92565ZM6.3536 2.59065C5.4188 4.3871 4.8792 6.4239 4.7785 8.55H1.96555C2.12968 7.26544 2.6188 6.044 3.38665 5.0012C4.15449 3.95839 5.17568 3.12872 6.3536 2.59065ZM1.96555 10.45H4.79085C4.92005 12.71 5.4226 14.7041 6.26905 16.3685C5.11213 15.8231 4.11134 14.995 3.35916 13.9605C2.60698 12.9261 2.12768 11.7187 1.96555 10.45ZM8.9775 17.0743C7.64655 15.4612 6.8609 13.2012 6.68895 10.45H12.4963C12.2987 13.0843 11.4351 15.3862 10.0234 17.0734C9.85055 17.0848 9.67765 17.1 9.5 17.1C9.3233 17.1 9.15135 17.0848 8.9775 17.0743ZM12.788 16.341C13.6952 14.6367 14.2491 12.635 14.3944 10.45H17.0335C16.8732 11.7081 16.4008 12.9061 15.6593 13.9349C14.9178 14.9638 13.9307 15.7909 12.788 16.341Z" fill="#EDE8C8"/>
</svg>
