<svg width="336" height="63" viewBox="0 0 336 63" fill="none" xmlns="http://www.w3.org/2000/svg">
<path d="M87.7781 2.65771V61.8183H76.9688V2.65771H87.7781Z" fill="#EDE8C8"/>
<path d="M148.519 2.65771V61.8183H138.904L110.788 21.5209H110.293V61.8183H99.4834V2.65771H109.156L137.243 42.984H137.768V2.65771H148.519Z" fill="#EDE8C8"/>
<path d="M160.297 61.8183V2.65771H199.106V11.6416H171.106V27.7027H197.095V36.6866H171.106V52.8344H199.339V61.8183H160.297Z" fill="#EDE8C8"/>
<path d="M210.134 2.65771H223.361L241.076 45.526H241.775L259.49 2.65771H272.717V61.8183H262.345V21.1743H261.791L245.3 61.645H237.55L221.06 21.0876H220.506V61.8183H210.134V2.65771Z" fill="#EDE8C8"/>
<path d="M292.151 61.8183H280.613L301.62 2.65771H314.964L336 61.8183H324.462L308.525 14.7903H308.059L292.151 61.8183ZM292.529 38.622H323.996V47.2304H292.529V38.622Z" fill="#EDE8C8"/>
<path fill-rule="evenodd" clip-rule="evenodd" d="M38.3427 1.25596C38.8462 0.473573 39.7176 0 40.6537 0H57.9603C60.125 0 61.4357 2.37072 60.2713 4.18L23.34 61.5644C22.8364 62.3468 21.9651 62.8204 21.029 62.8204H3.72241C1.5577 62.8204 0.246993 60.4496 1.41141 58.6404L38.3427 1.25596ZM40.398 4.19858H56.4096L50.0491 13.7048H34.0374L40.398 4.19858ZM47.1411 18.458H31.1295L24.7689 27.9642H40.7806L47.1411 18.458ZM21.861 33.1926H37.8727L31.5121 42.6989H15.5005L21.861 33.1926ZM28.2846 47.9273H12.2729L5.91239 57.4335H21.9241L28.2846 47.9273Z" fill="#EDE8C8"/>
<path fill-rule="evenodd" clip-rule="evenodd" d="M2.74139 0C1.22736 0 0 1.21688 0 2.71798V55.6894L21.6856 22.2213C21.9696 21.783 22.1206 21.2731 22.1206 20.7522V2.71798C22.1206 1.21688 20.8932 0 19.3792 0H2.74139ZM36.0361 46.5858C35.482 47.4516 35.4664 48.5528 35.9958 49.4335L43.3528 61.6734C43.8472 62.4961 44.7418 63 45.7077 63H63.924C66.0508 63 67.3676 60.7031 66.2793 58.8913L50.106 31.9651C49.0604 30.2245 46.5308 30.189 45.4359 31.8995L36.0361 46.5858Z" fill="#D82111"/>
</svg>