<svg width="54" height="56" viewBox="0 0 54 56" fill="none" xmlns="http://www.w3.org/2000/svg">
<path d="M30.6 3.6129C30.6 1.61452 28.9912 0 27 0C25.0087 0 23.4 1.61452 23.4 3.6129V28.9032C23.4 30.9016 25.0087 32.5161 27 32.5161C28.9912 32.5161 30.6 30.9016 30.6 28.9032V3.6129ZM14.3438 13.6161C15.8737 12.3403 16.0763 10.0597 14.805 8.52419C13.5338 6.98871 11.2612 6.78548 9.73125 8.06129C3.79125 13.029 0 20.5258 0 28.9032C0 43.8629 12.0938 56 27 56C41.9062 56 54 43.8629 54 28.9032C54 20.5258 50.1975 13.029 44.2575 8.06129C42.7275 6.78548 40.455 7 39.1837 8.52419C37.9125 10.0484 38.1262 12.3403 39.645 13.6161C44.0212 17.2629 46.7887 22.7613 46.7887 28.9032C46.7887 39.8774 37.9237 48.7742 26.9887 48.7742C16.0537 48.7742 7.18875 39.8774 7.18875 28.9032C7.18875 22.7613 9.9675 17.2629 14.3325 13.6161H14.3438Z" fill="#111111"/>
</svg>