<svg width="67" height="63" viewBox="0 0 67 63" fill="none" xmlns="http://www.w3.org/2000/svg">
<path fill-rule="evenodd" clip-rule="evenodd" d="M38.3427 1.25596C38.8462 0.473573 39.7176 0 40.6537 0H57.9603C60.125 0 61.4357 2.37072 60.2713 4.18L23.34 61.5644C22.8364 62.3468 21.9651 62.8204 21.029 62.8204H3.72241C1.5577 62.8204 0.246993 60.4496 1.41141 58.6404L38.3427 1.25596ZM40.398 4.19858H56.4096L50.0491 13.7048H34.0374L40.398 4.19858ZM47.1411 18.458H31.1295L24.7689 27.9642H40.7806L47.1411 18.458ZM21.861 33.1926H37.8727L31.5121 42.6989H15.5005L21.861 33.1926ZM28.2846 47.9273H12.2729L5.91239 57.4335H21.9241L28.2846 47.9273Z" fill="#EDE8C8"/>
<path fill-rule="evenodd" clip-rule="evenodd" d="M2.74139 0C1.22736 0 0 1.21688 0 2.71798V55.6894L21.6856 22.2213C21.9696 21.783 22.1206 21.2731 22.1206 20.7522V2.71798C22.1206 1.21688 20.8932 0 19.3792 0H2.74139ZM36.0361 46.5858C35.482 47.4516 35.4664 48.5528 35.9958 49.4335L43.3528 61.6734C43.8472 62.4961 44.7418 63 45.7077 63H63.924C66.0508 63 67.3676 60.7031 66.2793 58.8913L50.106 31.9651C49.0604 30.2245 46.5308 30.189 45.4359 31.8995L36.0361 46.5858Z" fill="#D82111"/>
</svg>