<svg width="146" height="115" viewBox="0 0 146 115" fill="none" xmlns="http://www.w3.org/2000/svg">
<path d="M140.786 0H5.21429C2.33013 0 0 2.33594 0 5.22727V109.773C0 112.664 2.33013 115 5.21429 115H140.786C143.67 115 146 112.664 146 109.773V5.22727C146 2.33594 143.67 0 140.786 0ZM44.6473 23.5227C50.3993 23.5227 55.0759 28.2109 55.0759 33.9773C55.0759 39.7436 50.3993 44.4318 44.6473 44.4318C38.8953 44.4318 34.2188 39.7436 34.2188 33.9773C34.2188 28.2109 38.8953 23.5227 44.6473 23.5227ZM128.385 94.924C128.148 95.1239 127.848 95.2338 127.538 95.2344H18.4455C17.7286 95.2344 17.142 94.6463 17.142 93.9276C17.142 93.6172 17.256 93.3231 17.4516 93.0781L45.2013 60.081C45.6576 59.5256 46.4886 59.4602 47.0426 59.9176C47.0915 59.9666 47.1567 60.0156 47.2056 60.081L63.4025 79.3565L89.1643 48.728C89.6205 48.1726 90.4516 48.1072 91.0056 48.5646C91.0545 48.6136 91.1196 48.6626 91.1685 48.728L128.581 93.0945C129.005 93.6335 128.94 94.4666 128.385 94.924Z" fill="#7C8698"/>
</svg>