<svg width="77" height="80" viewBox="0 0 77 80" fill="none" xmlns="http://www.w3.org/2000/svg">
<path d="M4.62 76.9082C4.62 78.6184 5.99637 80 7.7 80H35.2275V43.6715H4.62V76.9082ZM41.7725 80H69.3C71.0036 80 72.38 78.6184 72.38 76.9082V43.6715H41.7725V80ZM73.92 20.4831H59.7135C61.0225 18.4155 61.7925 15.9614 61.7925 13.3333C61.7925 5.98068 55.8346 0 48.51 0C44.5252 0 40.9351 1.77778 38.5 4.57971C36.0649 1.77778 32.4748 0 28.49 0C21.1654 0 15.2075 5.98068 15.2075 13.3333C15.2075 15.9614 15.9679 18.4155 17.2865 20.4831H3.08C1.37637 20.4831 0 21.8647 0 23.5749V37.1014H35.2275V20.4831H41.7725V37.1014H77V23.5749C77 21.8647 75.6236 20.4831 73.92 20.4831ZM35.2275 20.0966H28.49C24.7747 20.0966 21.7525 17.0628 21.7525 13.3333C21.7525 9.60386 24.7747 6.57005 28.49 6.57005C32.2052 6.57005 35.2275 9.60386 35.2275 13.3333V20.0966ZM48.51 20.0966H41.7725V13.3333C41.7725 9.60386 44.7948 6.57005 48.51 6.57005C52.2253 6.57005 55.2475 9.60386 55.2475 13.3333C55.2475 17.0628 52.2253 20.0966 48.51 20.0966Z" fill="#AEAEAF"/>
</svg>