<svg width="75" height="50" viewBox="0 0 75 50" fill="none" xmlns="http://www.w3.org/2000/svg">
<path d="M0 8.33333C0 3.73698 3.73698 0 8.33333 0H66.6667C71.263 0 75 3.73698 75 8.33333V16.6667C75 17.8125 74.0365 18.7109 72.9557 19.0885C70.5078 19.9349 68.75 22.2656 68.75 25C68.75 27.7344 70.5078 30.0651 72.9557 30.9115C74.0365 31.2891 75 32.1875 75 33.3333V41.6667C75 46.263 71.263 50 66.6667 50H8.33333C3.73698 50 0 46.263 0 41.6667V33.3333C0 32.1875 0.963542 31.2891 2.04427 30.9115C4.49219 30.0651 6.25 27.7344 6.25 25C6.25 22.2656 4.49219 19.9349 2.04427 19.0885C0.963542 18.7109 0 17.8125 0 16.6667V8.33333Z" fill="#AEAEAF"/>
</svg>