<svg width="16" height="16" viewBox="0 0 16 16" fill="none" xmlns="http://www.w3.org/2000/svg">
<g clip-path="url(#clip0_1480_1684)">
<path d="M3.5112 8.50308C3.5112 8.50604 3.5112 8.50866 3.5112 8.51127C3.79173 9.00599 3.93856 9.56525 3.93723 10.134V10.762C5.135 10.2936 6.53593 10.0465 8.00014 10.0465C9.94134 10.0465 11.3668 10.4696 12.1174 10.7602L12.1226 10.1336C12.1226 9.45673 12.2822 8.85135 12.5616 8.36054L13.1942 4.19309C13.3575 3.12408 13.0751 2.10157 12.3979 1.31348C11.6797 0.479267 10.5921 0 9.41408 0H6.64644C5.46615 0 4.37666 0.479267 3.66113 1.31459C2.9847 2.10307 2.7019 3.12558 2.86526 4.19386L3.5112 8.50308Z" fill="white"/>
<path d="M14.7185 7.81348C13.5029 7.81348 12.867 8.98072 12.867 10.1331V10.8237C12.867 11.0808 12.7465 11.3219 12.5515 11.4518C12.383 11.5651 12.1688 11.5856 11.9818 11.5065C11.3306 11.239 9.94869 10.7902 8.00044 10.7902C6.57422 10.7902 5.21794 11.038 4.07822 11.5065C3.89124 11.5859 3.67678 11.5655 3.50818 11.4522C3.31357 11.3219 3.19266 11.0801 3.19266 10.8241V10.1331C3.19266 8.83079 2.29964 7.81348 1.15807 7.81348C0.529605 7.81348 0.186523 8.55765 0.186523 8.93719C0.186523 9.39859 0.510628 9.91654 0.909139 10.0907C0.949709 10.1085 0.99436 10.1279 1.04198 10.145C1.40365 10.2894 2.07638 10.5576 2.07638 11.3286V12.8244C2.07638 13.3826 2.19656 14.6105 3.20086 14.8416C3.19734 14.855 3.19458 14.8687 3.19266 14.8825V15.6267C3.19266 15.8322 3.35927 15.9988 3.56477 15.9988H3.93687C4.14237 15.9988 4.30897 15.8322 4.30897 15.6267V14.8832H11.7508V15.6274C11.7508 15.8329 11.9174 15.9995 12.1229 15.9995H12.495C12.7005 15.9995 12.8671 15.8329 12.8671 15.6274V14.8832C12.8671 14.8728 12.8619 14.8639 12.8612 14.8538C13.7776 14.679 13.9834 13.6791 13.9834 12.8256V11.3298C13.9834 10.558 14.6532 10.2898 15.0137 10.1454C15.0602 10.1268 15.1042 10.1082 15.1443 10.0914C15.5205 9.92582 15.8141 9.4183 15.8141 8.93792C15.8144 8.55245 15.3515 7.81348 14.7185 7.81348Z" fill="white"/>
</g>
<defs>
<clipPath id="clip0_1480_1684">
<rect width="16" height="16" fill="white"/>
</clipPath>
</defs>
</svg>
