<svg width="31" height="21" viewBox="0 0 31 21" fill="none" xmlns="http://www.w3.org/2000/svg">
<path d="M15.0937 0C3.63457 0 0.190661 9.9255 0.159135 10.026L0 10.5L0.157633 10.974C0.190661 11.0745 3.63457 21 15.0937 21C26.5529 21 29.9968 11.0745 30.0284 10.974L30.1875 10.5L30.0299 10.026C29.9968 9.9255 26.5529 0 15.0937 0ZM15.0937 16.5C11.782 16.5 9.08868 13.809 9.08868 10.5C9.08868 7.191 11.782 4.5 15.0937 4.5C18.4055 4.5 21.0988 7.191 21.0988 10.5C21.0988 13.809 18.4055 16.5 15.0937 16.5Z" fill="#EDE8C8"/>
<path d="M14.7656 7.875C13.165 7.875 11.8125 9.22753 11.8125 10.8281C11.8125 12.4287 13.165 13.7812 14.7656 13.7812C16.3662 13.7812 17.7188 12.4287 17.7188 10.8281C17.7188 9.22753 16.3662 7.875 14.7656 7.875Z" fill="#EDE8C8"/>
</svg>
