<svg width="22" height="22" viewBox="0 0 22 22" fill="none" xmlns="http://www.w3.org/2000/svg">
<g clip-path="url(#clip0_1558_89)">
<path d="M17.686 11.4217C17.7209 11.1595 17.7384 10.8885 17.7384 10.6001C17.7384 10.3204 17.7209 10.0407 17.6772 9.77847L19.4516 8.39743C19.6089 8.27506 19.6526 8.03906 19.5565 7.86424L17.8783 4.96232C17.7734 4.77002 17.5548 4.70884 17.3625 4.77002L15.2735 5.60913C14.8365 5.27698 14.3732 4.99728 13.8575 4.7875L13.5428 2.56735C13.5079 2.35758 13.3331 2.20898 13.1233 2.20898H9.76684C9.55706 2.20898 9.39099 2.35758 9.35603 2.56735L9.04136 4.7875C8.52566 4.99728 8.05366 5.28573 7.62536 5.60913L5.53632 4.77002C5.34403 4.7001 5.12551 4.77002 5.02062 4.96232L3.35114 7.86424C3.24625 8.0478 3.28121 8.27506 3.45603 8.39743L5.2304 9.77847C5.18669 10.0407 5.15173 10.3291 5.15173 10.6001C5.15173 10.8711 5.16921 11.1595 5.21291 11.4217L3.43854 12.8028C3.28121 12.9251 3.23751 13.1611 3.33366 13.3359L5.01188 16.2379C5.11677 16.4302 5.33529 16.4914 5.52758 16.4302L7.61662 15.5911C8.05366 15.9232 8.51692 16.2029 9.03262 16.4127L9.34729 18.6328C9.39099 18.8426 9.55706 18.9912 9.76684 18.9912H13.1233C13.3331 18.9912 13.5079 18.8426 13.5341 18.6328L13.8488 16.4127C14.3645 16.2029 14.8365 15.9232 15.2648 15.5911L17.3538 16.4302C17.5461 16.5001 17.7646 16.4302 17.8695 16.2379L19.5477 13.3359C19.6526 13.1437 19.6089 12.9251 19.4428 12.8028L17.686 11.4217ZM11.4451 13.7468C9.7144 13.7468 8.2984 12.3308 8.2984 10.6001C8.2984 8.86943 9.7144 7.45343 11.4451 7.45343C13.1757 7.45343 14.5917 8.86943 14.5917 10.6001C14.5917 12.3308 13.1757 13.7468 11.4451 13.7468Z" fill="#EBEBEF"/>
</g>
<defs>
<clipPath id="clip0_1558_89">
<rect width="20.9778" height="20.9778" fill="white" transform="translate(0.956055 0.111328)"/>
</clipPath>
</defs>
</svg>
