<svg width="27" height="27" viewBox="0 0 27 27" fill="none" xmlns="http://www.w3.org/2000/svg">
<path d="M13.5 1H6C3.23858 1 1 3.23858 1 6V21C1 23.7614 3.23858 26 6 26H21C23.7614 26 26 23.7614 26 21V13.5" stroke="#7C8698" stroke-width="2" stroke-linecap="round"/>
<path d="M10.7282 14.55C9.94096 14.55 9.24822 14.1195 8.89135 13.4685L5.13375 6.654C4.74539 5.961 5.2492 5.1 6.04691 5.1H21.5811L22.5678 3H26V5.1H23.9008L20.1222 13.0695L21.5392 15.6315C22.3054 17.0385 21.2977 18.75 19.7023 18.75H7.10702V16.65H19.7023L18.5478 14.55H10.7282ZM20.584 7.2H7.83125L10.7282 12.45H18.0964L20.584 7.2ZM19.7023 19.8C20.8569 19.8 21.7911 20.745 21.7911 21.9C21.7911 23.055 20.8569 24 19.7023 24C18.5478 24 17.6031 23.055 17.6031 21.9C17.6031 20.745 18.5478 19.8 19.7023 19.8ZM9.20624 19.8C10.3608 19.8 11.295 20.745 11.295 21.9C11.295 23.055 10.3608 24 9.20624 24C8.05166 24 7.10702 23.055 7.10702 21.9C7.10702 20.745 8.05166 19.8 9.20624 19.8Z" fill="#7C8698"/>
</svg>
