<svg width="79" height="69" viewBox="0 0 79 69" fill="none" xmlns="http://www.w3.org/2000/svg">
<path d="M77.5534 37.9808C79.4822 36.0556 79.4822 32.929 77.5534 31.0038L57.8024 11.2895C55.8736 9.36429 52.7412 9.36429 50.8124 11.2895C48.8836 13.2147 48.8836 16.3413 50.8124 18.2665L62.1384 29.5714H29.6264C26.8953 29.5714 24.6887 31.7739 24.6887 34.5C24.6887 37.2261 26.8953 39.4286 29.6264 39.4286H62.1384L50.8124 50.7335C48.8836 52.6587 48.8836 55.7853 50.8124 57.7105C52.7412 59.6357 55.8736 59.6357 57.8024 57.7105L77.5534 37.9962V37.9808ZM24.6887 9.85714C27.4199 9.85714 29.6264 7.65469 29.6264 4.92857C29.6264 2.20246 27.4199 0 24.6887 0H14.8132C6.63509 0 0 6.62277 0 14.7857V54.2143C0 62.3772 6.63509 69 14.8132 69H24.6887C27.4199 69 29.6264 66.7975 29.6264 64.0714C29.6264 61.3453 27.4199 59.1429 24.6887 59.1429H14.8132C12.082 59.1429 9.87548 56.9404 9.87548 54.2143V14.7857C9.87548 12.0596 12.082 9.85714 14.8132 9.85714H24.6887Z" fill="#AEAEAF"/>
</svg>