<svg width="14" height="14" viewBox="0 0 14 14" fill="none" xmlns="http://www.w3.org/2000/svg">
<path d="M12.7339 4.63374L8.78902 4.03337L7.02556 0.289614C6.97739 0.187112 6.89815 0.104135 6.80027 0.0536974C6.55478 -0.0732095 6.25647 0.0325463 6.13372 0.289614L4.37026 4.03337L0.425382 4.63374C0.316623 4.65001 0.217185 4.7037 0.141053 4.78505C0.0490136 4.88411 -0.00170428 5.01739 4.37307e-05 5.15559C0.00179174 5.29379 0.0558626 5.42561 0.150375 5.52208L3.00455 8.43606L2.33024 12.5508C2.31442 12.6465 2.32454 12.7449 2.35943 12.8349C2.39433 12.9249 2.45261 13.0029 2.52766 13.06C2.60272 13.1171 2.69155 13.151 2.78407 13.1579C2.8766 13.1648 2.96913 13.1444 3.05116 13.0991L6.57964 11.1564L10.1081 13.0991C10.2045 13.1528 10.3163 13.1707 10.4235 13.1511C10.6939 13.1023 10.8757 12.8339 10.829 12.5508L10.1547 8.43606L13.0089 5.52208C13.0866 5.44236 13.1379 5.33823 13.1534 5.22434C13.1954 4.93961 13.0058 4.67604 12.7339 4.63374Z" fill="#FDC301"/>
</svg>
