<svg width="8" height="9" viewBox="0 0 8 9" fill="none" xmlns="http://www.w3.org/2000/svg">
<path d="M7.5 0C7.22386 0 7 0.223858 7 0.5C7 0.776142 6.77614 1 6.5 1C6.22386 1 6 0.776142 6 0.5C6 0.223858 5.77614 0 5.5 0H2.5C2.22386 0 2 0.223858 2 0.5C2 0.776142 1.77614 1 1.5 1C1.22386 1 1 0.776142 1 0.5C1 0.223858 0.776142 0 0.5 0C0.223858 0 0 0.223858 0 0.5V8.5C0 8.77614 0.223858 9 0.5 9C0.776142 9 1 8.77614 1 8.5C1 8.22386 1.22386 8 1.5 8C1.77614 8 2 8.22386 2 8.5C2 8.77614 2.22386 9 2.5 9H5.5C5.77614 9 6 8.77614 6 8.5C6 8.22386 6.22386 8 6.5 8C6.77614 8 7 8.22386 7 8.5C7 8.77614 7.22386 9 7.5 9C7.77614 9 8 8.77614 8 8.5V0.5C8 0.223858 7.77614 0 7.5 0ZM2 6.5C2 6.77614 1.77614 7 1.5 7C1.22386 7 1 6.77614 1 6.5C1 6.22386 1.22386 6 1.5 6C1.77614 6 2 6.22386 2 6.5ZM2 4.5C2 4.77614 1.77614 5 1.5 5C1.22386 5 1 4.77614 1 4.5C1 4.22386 1.22386 4 1.5 4C1.77614 4 2 4.22386 2 4.5ZM2 2.5C2 2.77614 1.77614 3 1.5 3C1.22386 3 1 2.77614 1 2.5C1 2.22386 1.22386 2 1.5 2C1.77614 2 2 2.22386 2 2.5ZM7 6.5C7 6.77614 6.77614 7 6.5 7C6.22386 7 6 6.77614 6 6.5C6 6.22386 6.22386 6 6.5 6C6.77614 6 7 6.22386 7 6.5ZM7 4.5C7 4.77614 6.77614 5 6.5 5C6.22386 5 6 4.77614 6 4.5C6 4.22386 6.22386 4 6.5 4C6.77614 4 7 4.22386 7 4.5ZM7 2.5C7 2.77614 6.77614 3 6.5 3C6.22386 3 6 2.77614 6 2.5C6 2.22386 6.22386 2 6.5 2C6.77614 2 7 2.22386 7 2.5Z" fill="#AEAEAF"/>
</svg>
