<svg width="20" height="20" viewBox="0 0 20 20" fill="none" xmlns="http://www.w3.org/2000/svg">
<path d="M19.7582 6.89221L17.9194 5.0533C17.771 4.90693 17.5732 4.82147 17.365 4.81375C17.1567 4.80604 16.9531 4.87664 16.7943 5.01163C16.5492 5.22029 16.2346 5.32924 15.913 5.31689C15.5913 5.30454 15.286 5.17179 15.0576 4.94495C14.8309 4.71655 14.6982 4.41133 14.6859 4.08974C14.6735 3.76816 14.7824 3.45366 14.9909 3.20854C15.1259 3.04976 15.1965 2.84616 15.1888 2.63789C15.1811 2.42963 15.0956 2.23181 14.9493 2.08344L13.1088 0.24244C12.9532 0.0871921 12.7425 0 12.5227 0C12.3029 0 12.0922 0.0871921 11.9366 0.24244L9.00527 3.17354C8.82429 3.35518 8.68781 3.57625 8.60651 3.81943C8.59068 3.86619 8.56428 3.90867 8.52938 3.94357C8.49448 3.97848 8.452 4.00487 8.40525 4.0207C8.16198 4.102 7.94089 4.23866 7.75939 4.41991L0.242427 11.9373C0.0871876 12.0928 0 12.3036 0 12.5234C0 12.7431 0.0871876 12.9539 0.242427 13.1095L2.08333 14.9484C2.23169 15.0947 2.4295 15.1802 2.63776 15.1879C2.84601 15.1956 3.0496 15.125 3.20838 14.99C3.45292 14.7797 3.76792 14.6695 4.09025 14.6816C4.41258 14.6937 4.71843 14.8272 4.94652 15.0553C5.1746 15.2834 5.30806 15.5893 5.32017 15.9116C5.33227 16.234 5.22212 16.549 5.01178 16.7935C4.8768 16.9523 4.80621 17.1559 4.81392 17.3642C4.82163 17.5725 4.90709 17.7703 5.05345 17.9186L6.89227 19.7576C7.04781 19.9128 7.25858 20 7.47834 20C7.69809 20 7.90886 19.9128 8.0644 19.7576L15.5814 12.2402C15.7625 12.0588 15.8991 11.8378 15.9805 11.5947C15.9963 11.5478 16.0227 11.5052 16.0577 11.4702C16.0927 11.4352 16.1353 11.4088 16.1822 11.393C16.4253 11.3117 16.6462 11.1752 16.8277 10.9943L19.7586 8.06274C19.9133 7.90721 20.0001 7.69675 20 7.47739C19.9999 7.25803 19.913 7.04764 19.7582 6.89221ZM10.2424 5.65669C10.1805 5.71861 10.107 5.76774 10.0261 5.80125C9.9452 5.83477 9.85849 5.85202 9.77093 5.85202C9.68336 5.85202 9.59666 5.83477 9.51576 5.80125C9.43486 5.76774 9.36136 5.71861 9.29945 5.65669L8.81985 5.17706C8.69786 5.05139 8.63022 4.88277 8.63154 4.70764C8.63286 4.5325 8.70303 4.36492 8.82689 4.2411C8.95076 4.11729 9.11836 4.04719 9.29349 4.04595C9.46861 4.0447 9.6372 4.11243 9.7628 4.23447L10.2424 4.71368C10.3043 4.7756 10.3534 4.8491 10.387 4.93C10.4205 5.0109 10.4377 5.09761 10.4377 5.18518C10.4377 5.27275 10.4205 5.35946 10.387 5.44036C10.3534 5.52127 10.3043 5.59477 10.2424 5.65669ZM12.0758 7.49019C11.9508 7.61513 11.7813 7.68531 11.6045 7.68531C11.4278 7.68531 11.2583 7.61513 11.1333 7.49019L10.6749 7.03181C10.613 6.96989 10.5639 6.89639 10.5304 6.81549C10.4969 6.73458 10.4796 6.64788 10.4796 6.56031C10.4796 6.47274 10.4969 6.38604 10.5304 6.30514C10.5639 6.22423 10.613 6.15073 10.6749 6.08881C10.8 5.96376 10.9696 5.89351 11.1464 5.89351C11.234 5.89351 11.3207 5.91075 11.4016 5.94426C11.4825 5.97777 11.556 6.02689 11.6179 6.08881L12.0762 6.54718C12.1384 6.60909 12.1877 6.68266 12.2213 6.76366C12.255 6.84466 12.2723 6.93151 12.2724 7.01922C12.2724 7.10694 12.2552 7.1938 12.2216 7.27484C12.188 7.35587 12.1387 7.42947 12.0766 7.49144L12.0758 7.49019ZM13.9092 9.32369C13.8473 9.38562 13.7738 9.43474 13.6929 9.46826C13.612 9.50177 13.5253 9.51902 13.4377 9.51902C13.3502 9.51902 13.2635 9.50177 13.1826 9.46826C13.1017 9.43474 13.0282 9.38562 12.9663 9.32369L12.5079 8.86531C12.3859 8.73965 12.3183 8.57103 12.3196 8.39589C12.3209 8.22076 12.3911 8.05317 12.515 7.92936C12.6388 7.80554 12.8064 7.73544 12.9816 7.7342C13.1567 7.73296 13.3253 7.80068 13.4509 7.92273L13.9092 8.3811C13.9715 8.44291 14.021 8.51641 14.0549 8.59739C14.0887 8.67837 14.1062 8.76524 14.1064 8.853C14.1066 8.94077 14.0895 9.02771 14.056 9.10884C14.0225 9.18997 13.9733 9.26369 13.9113 9.32577L13.9092 9.32369ZM15.7605 11.1797C15.6986 11.2416 15.6251 11.2907 15.5442 11.3243C15.4633 11.3578 15.3766 11.375 15.2891 11.375C15.2015 11.375 15.1148 11.3578 15.0339 11.3243C14.953 11.2907 14.8795 11.2416 14.8176 11.1797L14.3409 10.7005C14.2777 10.6388 14.2274 10.5651 14.1929 10.4837C14.1584 10.4024 14.1404 10.315 14.14 10.2266C14.1395 10.1382 14.1567 10.0507 14.1904 9.969C14.2241 9.88732 14.2737 9.81316 14.3364 9.75083C14.399 9.68849 14.4734 9.63924 14.5552 9.60591C14.6371 9.57259 14.7247 9.55587 14.8131 9.55672C14.9014 9.55757 14.9887 9.57598 15.0699 9.61087C15.1511 9.64577 15.2245 9.69645 15.2859 9.75998L15.763 10.2388C15.8249 10.3007 15.874 10.3742 15.9075 10.4552C15.941 10.5361 15.9582 10.6228 15.9582 10.7104C15.9581 10.7979 15.9408 10.8846 15.9073 10.9655C15.8737 11.0464 15.8246 11.1199 15.7626 11.1818L15.7605 11.1797Z" fill="#7C8698"/>
</svg>
