<svg width="23" height="23" viewBox="0 0 23 23" fill="none" xmlns="http://www.w3.org/2000/svg">
<path d="M22.7219 7.92605L20.6073 5.81129C20.4367 5.64297 20.2092 5.54469 19.9697 5.53582C19.7302 5.52695 19.4961 5.60813 19.3135 5.76337C19.0316 6.00333 18.6698 6.12862 18.2999 6.11442C17.93 6.10022 17.5789 5.94756 17.3162 5.6867C17.0555 5.42403 16.903 5.07303 16.8888 4.7032C16.8746 4.33338 16.9998 3.97171 17.2396 3.68983C17.3948 3.50722 17.476 3.27308 17.4671 3.03358C17.4582 2.79407 17.36 2.56658 17.1916 2.39596L15.0751 0.278806C14.8962 0.100271 14.6538 0 14.4011 0C14.1484 0 13.906 0.100271 13.7271 0.278806L10.3561 3.64957C10.1479 3.85846 9.99098 4.11268 9.89748 4.39235C9.87928 4.44612 9.84893 4.49497 9.80879 4.53511C9.76865 4.57525 9.7198 4.6056 9.66603 4.62381C9.38627 4.71731 9.13202 4.87446 8.9233 5.08289L0.278791 13.7279C0.100266 13.9067 0 14.1491 0 14.4019C0 14.6546 0.100266 14.897 0.278791 15.0759L2.39583 17.1906C2.56644 17.3589 2.79392 17.4572 3.03342 17.4661C3.27291 17.475 3.50704 17.3938 3.68963 17.2385C3.97086 16.9966 4.33311 16.87 4.70379 16.8839C5.07447 16.8978 5.4262 17.0513 5.68849 17.3136C5.95079 17.5759 6.10427 17.9277 6.11819 18.2984C6.13211 18.6691 6.00543 19.0313 5.76355 19.3126C5.60832 19.4952 5.52714 19.7293 5.53601 19.9688C5.54488 20.2083 5.64316 20.4358 5.81147 20.6064L7.92611 22.7212C8.10498 22.8997 8.34737 23 8.60009 23C8.8528 23 9.09519 22.8997 9.27406 22.7212L17.9186 14.0762C18.1269 13.8676 18.284 13.6135 18.3776 13.3339C18.3958 13.28 18.4261 13.231 18.4664 13.1907C18.5066 13.1505 18.5556 13.1201 18.6096 13.102C18.8891 13.0085 19.1431 12.8515 19.3518 12.6434L22.7224 9.27215C22.9003 9.09329 23.0001 8.85126 23 8.599C22.9999 8.34674 22.8999 8.10478 22.7219 7.92605ZM11.7788 6.50519C11.7076 6.57641 11.623 6.6329 11.53 6.67144C11.437 6.70998 11.3373 6.72982 11.2366 6.72982C11.1359 6.72982 11.0362 6.70998 10.9431 6.67144C10.8501 6.6329 10.7656 6.57641 10.6944 6.50519L10.1428 5.95362C10.0025 5.8091 9.92475 5.61519 9.92627 5.41378C9.92778 5.21238 10.0085 5.01966 10.1509 4.87727C10.2934 4.73488 10.4861 4.65426 10.6875 4.65284C10.8889 4.65141 11.0828 4.72929 11.2272 4.86964L11.7788 5.42073C11.85 5.49194 11.9065 5.57647 11.945 5.6695C11.9835 5.76254 12.0034 5.86226 12.0034 5.96296C12.0034 6.06367 11.9835 6.16338 11.945 6.25642C11.9065 6.34946 11.85 6.43399 11.7788 6.50519ZM13.8872 8.61372C13.7434 8.7574 13.5485 8.83811 13.3452 8.83811C13.142 8.83811 12.947 8.7574 12.8033 8.61372L12.2762 8.08658C12.205 8.01538 12.1485 7.93084 12.1099 7.83781C12.0714 7.74477 12.0516 7.64506 12.0516 7.54436C12.0516 7.44366 12.0714 7.34394 12.1099 7.25091C12.1485 7.15787 12.205 7.07334 12.2762 7.00213C12.42 6.85832 12.615 6.77753 12.8184 6.77753C12.9191 6.77753 13.0188 6.79737 13.1118 6.8359C13.2048 6.87444 13.2894 6.93092 13.3606 7.00213L13.8877 7.52926C13.9591 7.60046 14.0158 7.68505 14.0545 7.77821C14.0932 7.87136 14.1132 7.97123 14.1132 8.07211C14.1133 8.17298 14.0934 8.27288 14.0548 8.36606C14.0162 8.45925 13.9595 8.54389 13.8881 8.61515L13.8872 8.61372ZM15.9956 10.7222C15.9244 10.7935 15.8399 10.85 15.7468 10.8885C15.6538 10.927 15.5541 10.9469 15.4534 10.9469C15.3527 10.9469 15.253 10.927 15.16 10.8885C15.0669 10.85 14.9824 10.7935 14.9112 10.7222L14.3841 10.1951C14.2438 10.0506 14.166 9.85668 14.1675 9.65528C14.1691 9.45387 14.2498 9.26115 14.3922 9.11876C14.5346 8.97638 14.7274 8.89576 14.9288 8.89433C15.1302 8.8929 15.324 8.97078 15.4685 9.11114L15.9956 9.63827C16.0673 9.70934 16.1242 9.79387 16.1631 9.887C16.202 9.98013 16.2222 10.08 16.2224 10.181C16.2226 10.2819 16.2029 10.3819 16.1644 10.4752C16.1259 10.5685 16.0693 10.6532 15.998 10.7246L15.9956 10.7222ZM18.1246 12.8566C18.0534 12.9279 17.9689 12.9844 17.8759 13.0229C17.7828 13.0614 17.6831 13.0813 17.5824 13.0813C17.4817 13.0813 17.382 13.0614 17.289 13.0229C17.1959 12.9844 17.1114 12.9279 17.0402 12.8566L16.492 12.3056C16.4193 12.2346 16.3615 12.1498 16.3218 12.0563C16.2821 11.9627 16.2614 11.8622 16.2609 11.7606C16.2605 11.659 16.2802 11.5583 16.319 11.4643C16.3577 11.3704 16.4148 11.2851 16.4868 11.2135C16.5588 11.1418 16.6444 11.0851 16.7385 11.0468C16.8326 11.0085 16.9334 10.9893 17.035 10.9902C17.1366 10.9912 17.237 11.0124 17.3304 11.0525C17.4237 11.0926 17.5082 11.1509 17.5788 11.224L18.1275 11.7746C18.1987 11.8458 18.2551 11.9304 18.2936 12.0234C18.3321 12.1165 18.3519 12.2162 18.3519 12.3169C18.3518 12.4176 18.3319 12.5173 18.2934 12.6103C18.2548 12.7034 18.1983 12.7879 18.127 12.859L18.1246 12.8566Z" fill="#EDE8C8"/>
</svg>
