<svg width="40" height="39" viewBox="0 0 40 39" fill="none" xmlns="http://www.w3.org/2000/svg">
<path d="M14.0107 9.02099H17.9626V27.2797C17.9626 27.5172 18.1551 27.7115 18.3904 27.7115H21.5989C21.8342 27.7115 22.0267 27.5172 22.0267 27.2797V9.02099H25.9893C26.3476 9.02099 26.5455 8.6054 26.3262 8.32475L20.3369 0.671526C20.2969 0.619919 20.2457 0.578182 20.1874 0.549479C20.129 0.520776 20.0649 0.505859 20 0.505859C19.9351 0.505859 19.871 0.520776 19.8126 0.549479C19.7542 0.578182 19.7031 0.619919 19.6631 0.671526L13.6738 8.31935C13.4545 8.6054 13.6524 9.02099 14.0107 9.02099ZM39.5722 25.6605H36.3636C36.1283 25.6605 35.9358 25.8548 35.9358 26.0923V34.404H4.06417V26.0923C4.06417 25.8548 3.87166 25.6605 3.63636 25.6605H0.427807C0.192513 25.6605 0 25.8548 0 26.0923V36.7788C0 37.7341 0.764706 38.5059 1.71123 38.5059H38.2888C39.2353 38.5059 40 37.7341 40 36.7788V26.0923C40 25.8548 39.8075 25.6605 39.5722 25.6605Z" fill="#3B3CC8"/>
</svg>
